<?xml version="1.0" encoding="UTF-8"?>
<svg id="Layer_1" data-name="Layer 1" xmlns="http://www.w3.org/2000/svg" viewBox="0 0 323.75 241.67">
  <defs>
    <style>
      .cls-1 {
        stroke-width: 1.48px;
      }

      .cls-1, .cls-2, .cls-3, .cls-4 {
        stroke-miterlimit: 10;
      }

      .cls-1, .cls-3, .cls-4 {
        fill: #d8d8d8;
        stroke: #fff;
      }

      .cls-5 {
        fill: #231f20;
        stroke-width: 0px;
      }

      .cls-2 {
        fill: #fff;
        stroke: #231f20;
      }

      .cls-3 {
        stroke-width: 1.67px;
      }

      .cls-4 {
        stroke-width: .53px;
      }
    </style>
  </defs>
  <rect class="cls-1" x=".74" y=".74" width="322.26" height="240.18" rx=".78" ry=".78"/>
  <rect class="cls-2" x="103.9" y="35.94" width="120.19" height="176.2" rx="5.56" ry="5.56"/>
  <rect class="cls-3" x="113.71" y="45.61" width="100.3" height="48.89" rx="2.39" ry="2.39"/>
  <g>
    <path class="cls-5" d="M149.46,69.9c0-7.26,2.95-11.17,7.77-11.17s7.77,3.9,7.77,11.17-2.95,11.3-7.77,11.3-7.77-4.11-7.77-11.3ZM162.39,69.9c0-6.21-2.14-8.89-5.16-8.89s-5.16,2.68-5.16,8.89,2.14,9.03,5.16,9.03,5.16-2.82,5.16-9.03ZM155.13,69.66c0-1.39.98-2.24,2.1-2.24s2.1.85,2.1,2.24-.98,2.27-2.1,2.27-2.1-.85-2.1-2.27Z"/>
    <path class="cls-5" d="M169.83,69.9c0-7.26,2.95-11.17,7.77-11.17s7.77,3.9,7.77,11.17-2.95,11.3-7.77,11.3-7.77-4.11-7.77-11.3ZM182.76,69.9c0-6.21-2.14-8.89-5.16-8.89s-5.16,2.68-5.16,8.89,2.14,9.03,5.16,9.03,5.16-2.82,5.16-9.03ZM175.49,69.66c0-1.39.98-2.24,2.1-2.24s2.1.85,2.1,2.24-.98,2.27-2.1,2.27-2.1-.85-2.1-2.27Z"/>
    <path class="cls-5" d="M190.46,78.93l1.56-1.76c1.09,1.02,2.65,1.7,4.31,1.7,3.5,0,6.58-2.48,6.58-9.71,0-5.33-2.07-8.18-5.63-8.18-2.58,0-4.58,1.87-4.58,4.72s1.63,4.58,4.62,4.58c1.7,0,3.77-.85,5.63-3.05l.1,2.21c-1.76,1.83-4.04,2.95-6.28,2.95-4,0-6.72-2.24-6.72-6.69,0-4.14,3.36-6.96,7.19-6.96,4.72,0,8.31,3.46,8.31,10.42,0,8.69-4.38,12.05-9.06,12.05-2.65,0-4.62-.98-6.04-2.27Z"/>
  </g>
  <g>
    <rect class="cls-4" x="114.61" y="178.86" width="22.25" height="22.32" rx="3.92" ry="3.92"/>
    <rect class="cls-4" x="114.61" y="124.9" width="22.25" height="22.32" rx="3.92" ry="3.92"/>
    <rect class="cls-4" x="114.61" y="151.88" width="22.25" height="22.32" rx="3.92" ry="3.92"/>
    <rect class="cls-4" x="114.61" y="97.92" width="22.25" height="22.32" rx="3.92" ry="3.92"/>
    <path class="cls-5" d="M122.68,190.71c0-3.92,1.59-6.02,4.19-6.02s4.19,2.11,4.19,6.02-1.59,6.1-4.19,6.1-4.19-2.22-4.19-6.1ZM129.66,190.71c0-3.35-1.15-4.8-2.78-4.8s-2.78,1.45-2.78,4.8,1.15,4.87,2.78,4.87,2.78-1.52,2.78-4.87ZM125.74,190.58c0-.75.53-1.21,1.14-1.21s1.14.46,1.14,1.21-.53,1.23-1.14,1.23-1.14-.46-1.14-1.23Z"/>
    <path class="cls-5" d="M122.23,167.89h3.37v-8.57h-2.62v-.99c1.37-.18,2.25-.46,3-.86h1.14v10.42h3.04v1.26h-7.93v-1.26Z"/>
    <path class="cls-5" d="M127.19,134.43c.02-.64.05-1.43.09-2.07h-.09c-.38.57-.81,1.14-1.19,1.7l-3.15,3.96h7.58v1.23h-9.27v-1.01l5.82-7.45h1.63v11.68h-1.43v-8.04Z"/>
    <path class="cls-5" d="M128.12,104.93h-6.72v-1.32h8.46v.93c-3.09,3.53-3.85,6.17-4.03,10.75h-1.59c.2-4.41,1.23-7.1,3.88-10.36Z"/>
  </g>
  <rect class="cls-4" x="139.86" y="178.86" width="22.25" height="22.32" rx="3.92" ry="3.92"/>
  <rect class="cls-4" x="139.86" y="124.9" width="22.25" height="22.32" rx="3.92" ry="3.92"/>
  <rect class="cls-4" x="139.86" y="151.88" width="22.25" height="22.32" rx="3.92" ry="3.92"/>
  <rect class="cls-4" x="139.86" y="97.92" width="22.25" height="22.32" rx="3.92" ry="3.92"/>
  <path class="cls-5" d="M150.64,194.21c0-.92.66-1.56,1.48-1.56s1.48.64,1.48,1.56-.66,1.56-1.48,1.56-1.48-.62-1.48-1.56Z"/>
  <path class="cls-5" d="M147.04,168.25c3.96-3.5,6.12-5.55,6.12-7.49,0-1.34-.81-2.27-2.53-2.27-1.1,0-2.05.62-2.8,1.39l-.88-.86c1.06-1.06,2.22-1.78,3.86-1.78,2.34,0,3.81,1.37,3.81,3.44,0,2.2-2.2,4.38-5.36,7.25.73-.05,1.48-.09,2.18-.09h3.83v1.3h-8.22v-.9Z"/>
  <path class="cls-5" d="M146.73,141.1l.75-1.01c.79.7,1.74,1.34,3.3,1.34s2.95-1.03,2.95-2.65-1.14-2.55-2.86-2.55c-.97,0-1.56.24-2.38.7l-.81-.51.38-5.62h6.61v1.32h-5.27l-.31,3.44c.68-.29,1.28-.48,2.16-.48,2.23,0,4.01,1.14,4.01,3.66s-2.09,3.96-4.32,3.96c-2.09,0-3.31-.79-4.21-1.59Z"/>
  <path class="cls-5" d="M146.61,112.31c0-1.61,1.25-2.53,2.51-3.11v-.07c-.97-.6-1.78-1.5-1.78-2.73,0-1.79,1.52-3,3.61-3,2.29,0,3.62,1.3,3.62,3.11,0,1.1-.81,2.11-1.78,2.78v.07c1.28.64,2.29,1.37,2.29,3.04s-1.52,3.11-4.19,3.11-4.28-1.35-4.28-3.2ZM153.64,112.34c0-1.61-1.63-2.03-3.66-2.71-1.14.6-2,1.36-2,2.53,0,1.28,1.15,2.22,2.95,2.22s2.71-.82,2.71-2.03ZM153.26,106.57c0-1.14-.82-2.05-2.34-2.05-1.28,0-2.18.73-2.18,1.87,0,1.39,1.34,1.98,3.08,2.53.95-.7,1.45-1.48,1.45-2.34Z"/>
  <rect class="cls-4" x="165.1" y="178.86" width="22.25" height="22.32" rx="3.92" ry="3.92"/>
  <rect class="cls-4" x="165.1" y="124.9" width="22.25" height="22.32" rx="3.92" ry="3.92"/>
  <rect class="cls-4" x="165.1" y="151.88" width="22.25" height="22.32" rx="3.92" ry="3.92"/>
  <rect class="cls-4" x="165.1" y="97.92" width="22.25" height="22.32" rx="3.92" ry="3.92"/>
  <path class="cls-5" d="M178.45,184.05h1l-4.42,11.72h-1l4.42-11.72Z"/>
  <path class="cls-5" d="M171.99,167.72l.77-.99c.77.73,1.85,1.37,3.35,1.37,1.59,0,2.78-.82,2.78-2.12,0-1.39-1.17-2.33-4.23-2.33v-1.15c2.76,0,3.83-.95,3.83-2.18,0-1.12-.97-1.83-2.38-1.83-1.1,0-2.11.49-2.87,1.17l-.81-.95c.97-.84,2.23-1.46,3.74-1.46,2.2,0,3.86,1.08,3.86,2.97,0,1.41-1.04,2.31-2.49,2.78v.07c1.56.33,2.89,1.35,2.89,2.97,0,2.07-1.9,3.33-4.23,3.33-2.01,0-3.35-.79-4.21-1.65Z"/>
  <path class="cls-5" d="M172.36,137.07c0-4.69,2.34-6.5,4.89-6.5,1.43,0,2.49.53,3.26,1.25l-.84.95c-.6-.57-1.45-.93-2.33-.93-1.9,0-3.55,1.34-3.55,5.24,0,2.87,1.1,4.43,3.04,4.43,1.37,0,2.45-1.03,2.45-2.56s-.86-2.47-2.47-2.47c-.93,0-2.05.46-3.06,1.65l-.05-1.19c.97-.97,2.18-1.59,3.39-1.59,2.16,0,3.64,1.21,3.64,3.61,0,2.23-1.81,3.75-3.9,3.75-2.54,0-4.47-1.87-4.47-5.62Z"/>
  <path class="cls-5" d="M172.06,114.28l.84-.95c.59.55,1.43.92,2.33.92,1.89,0,3.55-1.34,3.55-5.24,0-2.88-1.12-4.41-3.04-4.41-1.39,0-2.47,1.01-2.47,2.54s.88,2.47,2.49,2.47c.92,0,2.03-.46,3.04-1.65l.05,1.19c-.95.99-2.18,1.59-3.39,1.59-2.16,0-3.63-1.21-3.63-3.61,0-2.23,1.81-3.75,3.88-3.75,2.54,0,4.49,1.87,4.49,5.62,0,4.69-2.36,6.5-4.89,6.5-1.43,0-2.49-.53-3.26-1.23Z"/>
  <rect class="cls-4" x="190.35" y="178.86" width="22.25" height="22.32" rx="3.92" ry="3.92"/>
  <rect class="cls-4" x="190.35" y="124.9" width="22.25" height="22.32" rx="3.92" ry="3.92"/>
  <rect class="cls-4" x="190.35" y="151.88" width="22.25" height="22.32" rx="3.92" ry="3.92"/>
  <rect class="cls-4" x="190.35" y="97.92" width="22.25" height="22.32" rx="3.92" ry="3.92"/>
  <path class="cls-5" d="M198.68,188.02h7.87v1.14h-7.87v-1.14ZM198.68,191.94h7.87v1.13h-7.87v-1.13Z"/>
  <path class="cls-5" d="M198.71,166.57l2-3.02-2.97-1.28.29-.84,3.06,1.01.15-3.46h.92l.15,3.46,3.06-1.01.29.84-2.97,1.28,2,3.02-.79.55-2.2-2.91-2.2,2.91-.79-.55Z"/>
  <path class="cls-5" d="M197.75,135.86h7.87v1.14h-7.87v-1.14Z"/>
  <path class="cls-5" d="M200.75,109.81h-3.33v-1.14h3.33v-3.57h1.21v3.57h3.33v1.14h-3.33v3.57h-1.21v-3.57Z"/>
</svg>