<?xml version="1.0" encoding="UTF-8"?>
<svg id="Layer_1" data-name="Layer 1" xmlns="http://www.w3.org/2000/svg" viewBox="0 0 289.27 215.59">
  <defs>
    <style>
      .cls-1 {
        stroke-width: 1.15px;
      }

      .cls-1, .cls-2, .cls-3, .cls-4, .cls-5, .cls-6, .cls-7, .cls-8, .cls-9, .cls-10 {
        stroke: #231f20;
        stroke-miterlimit: 10;
      }

      .cls-1, .cls-9 {
        fill: #ed1c24;
      }

      .cls-11, .cls-12 {
        stroke-width: 0px;
      }

      .cls-11, .cls-10 {
        fill: none;
      }

      .cls-2 {
        fill: #2e3192;
      }

      .cls-2, .cls-3, .cls-4, .cls-5, .cls-6, .cls-7, .cls-10 {
        stroke-width: .98px;
      }

      .cls-3, .cls-8 {
        fill: #fff;
      }

      .cls-4 {
        fill: #7f3f98;
      }

      .cls-5 {
        fill: #00a14b;
      }

      .cls-6 {
        fill: #ffde17;
      }

      .cls-7 {
        fill: #f26522;
      }

      .cls-8 {
        stroke-width: .83px;
      }

      .cls-9 {
        stroke-width: 1.06px;
      }

      .cls-12 {
        fill: #231f20;
      }
    </style>
  </defs>
  <rect class="cls-11" width="289.27" height="215.59" rx="15.37" ry="15.37"/>
  <path class="cls-5" d="M99.68,114.15v50.42c-18.66,0-34.96-10.14-43.68-25.22l43.67-25.22h.01Z"/>
  <path class="cls-2" d="M143.35,139.35c-8.71,15.07-25.01,25.22-43.67,25.22v-50.42l43.67,25.21Z"/>
  <path class="cls-4" d="M150.1,114.13c0,9.19-2.45,17.8-6.75,25.22l-43.63-25.25-.05-.02v-50.37c27.85,0,50.42,22.58,50.42,50.42Z"/>
  <path class="cls-6" d="M99.58,114.02l-43.58-25.09,43.66,25.21-43.67,25.22c-4.29-7.42-6.75-16.02-6.75-25.22,0-27.84,22.58-50.42,50.43-50.42v50.37l-.09-.06Z"/>
  <polygon class="cls-3" points="143.35 139.35 99.68 114.15 99.66 114.13 56 88.93 99.58 114.02 99.68 114.08 99.72 114.1 143.35 139.35"/>
  <polyline class="cls-10" points="143.28 88.95 99.72 114.1 99.68 114.12 99.66 114.13"/>
  <line class="cls-10" x1="55.99" y1="139.35" x2="55.92" y2="139.39"/>
  <polyline class="cls-10" points="99.68 114.08 99.68 114.12 99.68 114.15"/>
  <path class="cls-9" d="M99.58,114.02V48.85c22.07-1.82,49.46,12.49,56.43,33.51h0s-56.43,31.66-56.43,31.66Z"/>
  <polygon class="cls-3" points="143.35 139.35 99.68 114.15 99.66 114.13 56 88.93 99.58 114.02 99.68 114.08 99.72 114.1 143.35 139.35"/>
  <path class="cls-7" d="M99.71,114.14l-43.71-25.14c9.3-16.18,26.22-25.25,43.64-25.3l.09,50.43h-.02Z"/>
  <rect class="cls-1" x="192.04" y="66.03" width="55.36" height="24.91" rx="3.68" ry="3.68"/>
  <g>
    <path class="cls-12" d="M193.63,60.04l.71-.85c.41.34.92.57,1.45.57s.76-.2.76-.47c0-.39-.32-.49-.84-.7l-.71-.3c-.6-.23-1.15-.69-1.15-1.48,0-.9.81-1.62,1.99-1.62.65,0,1.32.25,1.81.71l-.62.78c-.38-.27-.72-.42-1.25-.42-.41,0-.68.17-.68.49s.36.45.89.64l.67.28c.71.27,1.16.71,1.16,1.48,0,.9-.76,1.69-2.1,1.69-.74,0-1.49-.27-2.07-.79Z"/>
    <path class="cls-12" d="M198.99,55.29h3.61v1.03h-2.37v1.09h2.02v1.03h-2.02v1.25h2.46v1.03h-3.69v-5.44Z"/>
    <path class="cls-12" d="M204.12,55.29h1.23v4.41h2.42v1.03h-3.65v-5.44Z"/>
    <path class="cls-12" d="M209,55.29h3.61v1.03h-2.37v1.09h2.02v1.03h-2.02v1.25h2.46v1.03h-3.69v-5.44Z"/>
    <path class="cls-12" d="M213.69,58.04c0-1.8,1.14-2.85,2.6-2.85.69,0,1.25.33,1.62.69l-.68.76c-.26-.24-.55-.39-.94-.39-.77,0-1.34.66-1.34,1.75s.56,1.77,1.38,1.77c.39,0,.72-.19.98-.48l.68.75c-.44.52-1.05.8-1.78.8-1.35,0-2.52-.96-2.52-2.79Z"/>
    <path class="cls-12" d="M220.14,56.32h-1.63v-1.03h4.49v1.03h-1.63v4.41h-1.23v-4.41Z"/>
    <path class="cls-12" d="M224.02,55.29h3.61v1.03h-2.37v1.09h2.02v1.03h-2.02v1.25h2.46v1.03h-3.69v-5.44Z"/>
    <path class="cls-12" d="M228.85,55.29h1.5c1.58,0,2.62.83,2.62,2.69s-1.04,2.74-2.55,2.74h-1.57v-5.44ZM230.28,59.74c.85,0,1.42-.45,1.42-1.75s-.58-1.7-1.42-1.7h-.2v3.46h.2Z"/>
    <path class="cls-12" d="M234.8,57.15c0-.54.4-.98.97-.98s.97.44.97.98-.4.98-.97.98-.97-.43-.97-.98ZM234.8,59.85c0-.54.4-.98.97-.98s.97.44.97.98-.4.98-.97.98-.97-.43-.97-.98Z"/>
  </g>
  <polygon class="cls-8" points="119.17 83.65 119.88 89.62 121.2 87.78 123.43 87.64 119.17 83.65"/>
</svg>