<?xml version="1.0" encoding="UTF-8"?>
<svg id="Layer_1" data-name="Layer 1" xmlns="http://www.w3.org/2000/svg" viewBox="0 0 195.63 146.03">
  <defs>
    <style>
      .cls-1 {
        fill: #7f3f98;
      }

      .cls-1, .cls-2, .cls-3, .cls-4, .cls-5, .cls-6, .cls-7, .cls-8, .cls-9 {
        stroke-width: .9px;
      }

      .cls-1, .cls-2, .cls-3, .cls-4, .cls-5, .cls-6, .cls-7, .cls-8, .cls-9, .cls-10 {
        stroke-miterlimit: 10;
      }

      .cls-1, .cls-2, .cls-3, .cls-4, .cls-5, .cls-6, .cls-7, .cls-9, .cls-10 {
        stroke: #231f20;
      }

      .cls-2 {
        fill: #ed1c24;
      }

      .cls-3, .cls-10 {
        fill: #fff;
      }

      .cls-4 {
        fill: #00a14b;
      }

      .cls-5 {
        fill: #ffde17;
      }

      .cls-6 {
        fill: #f26522;
      }

      .cls-7 {
        fill: #2e3192;
      }

      .cls-8 {
        fill: #d8d8d8;
        stroke: #fff;
      }

      .cls-9 {
        fill: none;
      }

      .cls-11 {
        fill: #231f20;
        stroke-width: 0px;
      }

      .cls-10 {
        stroke-width: 1.27px;
      }
    </style>
  </defs>
  <rect class="cls-8" x=".45" y=".45" width="194.73" height="145.13" rx="1.82" ry="1.82"/>
  <path class="cls-4" d="M70.2,73.76v33.94c-12.56,0-23.54-6.83-29.41-16.98l29.4-16.98h0Z"/>
  <path class="cls-7" d="M99.6,90.73c-5.86,10.15-16.84,16.98-29.4,16.98v-33.94l29.4,16.97Z"/>
  <path class="cls-1" d="M104.15,73.75c0,6.19-1.65,11.98-4.54,16.98l-29.37-17-.03-.02v-33.91c18.75,0,33.94,15.2,33.94,33.94Z"/>
  <path class="cls-5" d="M70.14,73.67l-29.34-16.89,29.39,16.97-29.4,16.98c-2.89-4.99-4.54-10.79-4.54-16.98,0-18.74,15.2-33.94,33.95-33.94v33.91l-.06-.04Z"/>
  <polygon class="cls-3" points="99.6 90.73 70.2 73.76 70.2 73.75 40.8 56.78 70.14 73.67 70.2 73.71 70.23 73.73 99.6 90.73"/>
  <polyline class="cls-9" points="99.56 56.8 70.23 73.73 70.2 73.74 70.2 73.75"/>
  <line class="cls-9" x1="40.8" y1="90.73" x2="40.75" y2="90.75"/>
  <polyline class="cls-9" points="70.2 73.71 70.2 73.74 70.2 73.76"/>
  <path class="cls-2" d="M70.14,73.68V29.8c14.86-1.23,33.29,8.41,37.99,22.56h0s-37.99,21.31-37.99,21.31Z"/>
  <polygon class="cls-3" points="99.6 90.73 70.2 73.76 70.2 73.75 40.8 56.78 70.14 73.67 70.2 73.71 70.23 73.73 99.6 90.73"/>
  <path class="cls-6" d="M70.22,73.76l-29.43-16.92c6.26-10.89,17.65-17,29.38-17.03l.06,33.95h-.01Z"/>
  <rect class="cls-2" x="132.38" y="41.37" width="37.27" height="16.77" rx="2.48" ry="2.48"/>
  <g>
    <path class="cls-11" d="M133.49,36.99l.53-.64c.31.25.69.43,1.09.43s.57-.15.57-.35c0-.29-.24-.37-.63-.53l-.53-.23c-.45-.17-.87-.52-.87-1.11,0-.68.61-1.22,1.5-1.22.49,0,.99.18,1.36.54l-.47.58c-.29-.21-.54-.32-.94-.32-.3,0-.51.13-.51.37s.27.34.67.48l.5.21c.54.2.87.53.87,1.11,0,.68-.57,1.27-1.58,1.27-.55,0-1.12-.2-1.56-.59Z"/>
    <path class="cls-11" d="M137.51,33.42h2.71v.78h-1.78v.82h1.52v.78h-1.52v.94h1.85v.78h-2.77v-4.09Z"/>
    <path class="cls-11" d="M141.36,33.42h.92v3.31h1.82v.78h-2.74v-4.09Z"/>
    <path class="cls-11" d="M145.03,33.42h2.71v.78h-1.78v.82h1.52v.78h-1.52v.94h1.85v.78h-2.77v-4.09Z"/>
    <path class="cls-11" d="M148.56,35.48c0-1.35.86-2.14,1.95-2.14.52,0,.94.25,1.22.52l-.51.57c-.19-.18-.42-.29-.71-.29-.58,0-1,.49-1,1.31s.42,1.33,1.04,1.33c.29,0,.54-.15.74-.36l.51.56c-.33.39-.79.6-1.34.6-1.02,0-1.89-.72-1.89-2.1Z"/>
    <path class="cls-11" d="M153.4,34.19h-1.23v-.78h3.38v.78h-1.23v3.31h-.92v-3.31Z"/>
    <path class="cls-11" d="M156.32,33.42h2.71v.78h-1.78v.82h1.52v.78h-1.52v.94h1.85v.78h-2.77v-4.09Z"/>
    <path class="cls-11" d="M159.94,33.42h1.13c1.19,0,1.97.62,1.97,2.02s-.78,2.06-1.91,2.06h-1.18v-4.09ZM161.02,36.76c.64,0,1.07-.34,1.07-1.32s-.43-1.28-1.07-1.28h-.15v2.6h.15Z"/>
    <path class="cls-11" d="M164.41,34.82c0-.41.3-.74.73-.74s.73.33.73.74-.3.74-.73.74-.73-.32-.73-.74ZM164.41,36.84c0-.41.3-.74.73-.74s.73.33.73.74-.3.74-.73.74-.73-.32-.73-.74Z"/>
  </g>
  <polygon class="cls-10" points="83.05 51.63 84.27 61.89 86.54 58.73 90.38 58.48 83.05 51.63"/>
</svg>