<?xml version="1.0" encoding="UTF-8"?>
<svg id="Layer_1" data-name="Layer 1" xmlns="http://www.w3.org/2000/svg" viewBox="0 0 195.63 146.03">
  <defs>
    <style>
      .cls-1 {
        fill: #fff;
        stroke: #231f20;
      }

      .cls-1, .cls-2 {
        stroke-miterlimit: 10;
        stroke-width: .9px;
      }

      .cls-2 {
        fill: #d8d8d8;
        stroke: #fff;
      }

      .cls-3 {
        fill: #808285;
      }

      .cls-3, .cls-4 {
        stroke-width: 0px;
      }

      .cls-4 {
        fill: #231f20;
      }
    </style>
  </defs>
  <rect class="cls-2" x=".45" y=".45" width="194.73" height="145.13" rx="1.82" ry="1.82"/>
  <rect class="cls-1" x="40.26" y="21.14" width="49.1" height="34.46" rx="4.03" ry="4.03"/>
  <rect class="cls-1" x="129.26" y="38.76" width="30.84" height="23.34" rx="2.63" ry="2.63"/>
  <rect class="cls-1" x="141.79" y="48" width="5.64" height="6.75" rx=".6" ry=".6"/>
  <rect class="cls-1" x="133.83" y="48" width="5.64" height="6.75" rx=".6" ry=".6"/>
  <rect class="cls-1" x="150.24" y="48" width="5.64" height="6.75" rx=".6" ry=".6"/>
  <rect class="cls-1" x="40.03" y="87.24" width="49.1" height="34.46" rx="4.03" ry="4.03"/>
  <g>
    <path class="cls-4" d="M40.61,57.73h.92v1.76h1.1v-1.76h.92v4.57h-.92v-1.91h-1.1v1.91h-.92v-4.57Z"/>
    <path class="cls-4" d="M44.4,61.44h.95v-2.84h-.95v-.87h2.81v.87h-.95v2.84h.95v.87h-2.81v-.87Z"/>
    <path class="cls-4" d="M48.1,57.73h1.12c1.17,0,1.95.69,1.95,2.27s-.77,2.31-1.89,2.31h-1.17v-4.57ZM49.17,61.47c.63,0,1.06-.38,1.06-1.47s-.43-1.43-1.06-1.43h-.15v2.91h.15Z"/>
    <path class="cls-4" d="M51.82,57.73h1.12c1.17,0,1.95.69,1.95,2.27s-.77,2.31-1.89,2.31h-1.17v-4.57ZM52.89,61.47c.63,0,1.06-.38,1.06-1.47s-.43-1.43-1.06-1.43h-.15v2.91h.15Z"/>
    <path class="cls-4" d="M55.68,57.73h2.68v.87h-1.77v.92h1.5v.87h-1.5v1.05h1.83v.87h-2.75v-4.57Z"/>
    <path class="cls-4" d="M59.25,57.73h.94l.85,2.27.35,1h.02c-.04-.48-.13-1.12-.13-1.66v-1.62h.87v4.57h-.94l-.85-2.28-.35-1h-.02c.04.51.13,1.12.13,1.66v1.62h-.87v-4.57Z"/>
  </g>
  <g>
    <path class="cls-4" d="M39.48,123.94h.97l.49,2.13c.12.5.2.96.32,1.47h.02c.12-.5.21-.97.32-1.47l.48-2.13h.94l-1.22,4.57h-1.1l-1.22-4.57Z"/>
    <path class="cls-4" d="M43.57,127.64h.95v-2.84h-.95v-.87h2.81v.87h-.95v2.84h.95v.87h-2.81v-.87Z"/>
    <path class="cls-4" d="M47.15,127.94l.53-.71c.31.28.68.48,1.08.48s.57-.17.57-.39c0-.33-.24-.41-.62-.59l-.53-.25c-.45-.19-.86-.58-.86-1.25,0-.76.6-1.36,1.48-1.36.49,0,.98.21,1.34.6l-.46.65c-.29-.23-.54-.36-.93-.36-.3,0-.51.14-.51.41s.27.38.66.54l.5.24c.53.22.86.6.86,1.24,0,.76-.56,1.42-1.57,1.42-.55,0-1.11-.23-1.54-.66Z"/>
    <path class="cls-4" d="M51.02,127.64h.95v-2.84h-.95v-.87h2.81v.87h-.95v2.84h.95v.87h-2.81v-.87Z"/>
    <path class="cls-4" d="M54.75,123.94h1.36c.84,0,1.48.26,1.48,1.13,0,.41-.22.85-.69.99v.03c.58.12.88.47.88,1.08,0,.93-.67,1.35-1.56,1.35h-1.48v-4.57ZM56.07,125.77c.44,0,.63-.21.63-.56s-.2-.47-.62-.47h-.41v1.03h.41ZM56.15,127.71c.5,0,.74-.2.74-.62s-.23-.57-.74-.57h-.49v1.19h.49Z"/>
    <path class="cls-4" d="M58.68,123.94h.91v3.71h1.8v.87h-2.72v-4.57Z"/>
    <path class="cls-4" d="M62.31,123.94h2.68v.87h-1.77v.92h1.5v.87h-1.5v1.05h1.83v.87h-2.75v-4.57Z"/>
  </g>
  <path class="cls-1" d="M144.82,18.83c10.46.42,9.99,19.7,9.99,19.7.02-.02-3.3,0-3.3,0,0,0-.3-16.16-6.58-16.25h-.05c-6.29.09-6.59,16.25-6.59,16.25h-3.62s-.37-19.28,10.1-19.7h.07Z"/>
  <path class="cls-1" d="M144.65,78.07c10.46.42,9.99,19.7,9.99,19.7.02-.02-3.3,0-3.3,0,0,0-.3-16.16-6.58-16.25h-.05c-6.29.09-6.05,7.28-6.05,7.28h-3.62s-.91-10.32,9.56-10.74h.07Z"/>
  <rect class="cls-1" x="128.33" y="97.48" width="30.84" height="23.34" rx="2.63" ry="2.63"/>
  <rect class="cls-1" x="140.85" y="106.72" width="5.64" height="6.75" rx=".6" ry=".6"/>
  <rect class="cls-1" x="132.89" y="106.72" width="5.64" height="6.75" rx=".6" ry=".6"/>
  <rect class="cls-1" x="149.31" y="106.72" width="5.64" height="6.75" rx=".6" ry=".6"/>
  <path class="cls-4" d="M134.65,110.88h.74v-1.58h-.61v-.39c.37-.06.57-.12.78-.25h.47v2.23h.62v.51h-2v-.51Z"/>
  <path class="cls-4" d="M142.87,110.88h.74v-1.58h-.61v-.39c.37-.06.57-.12.78-.25h.47v2.23h.62v.51h-2v-.51Z"/>
  <path class="cls-4" d="M151.1,110.88h.74v-1.58h-.61v-.39c.37-.06.57-.12.78-.25h.47v2.23h.62v.51h-2v-.51Z"/>
  <path class="cls-4" d="M135.71,52.25h.74v-1.58h-.61v-.4c.37-.06.57-.12.78-.25h.47v2.23h.62v.51h-2v-.51Z"/>
  <path class="cls-4" d="M143.85,52.4c.79-.66,1.31-1.12,1.31-1.52,0-.27-.17-.41-.45-.41-.22,0-.4.13-.55.28l-.34-.34c.29-.29.56-.43.98-.43.58,0,.97.35.97.87,0,.46-.47.95-1.01,1.42.16-.02.36-.03.5-.03h.65v.53h-2.06v-.36Z"/>
  <path class="cls-4" d="M152,52.43l.29-.4c.18.16.42.28.67.28.3,0,.51-.12.51-.33,0-.24-.19-.39-.83-.39v-.45c.54,0,.74-.15.74-.37,0-.19-.16-.3-.41-.3-.22,0-.39.09-.58.24l-.32-.39c.27-.22.58-.35.93-.35.6,0,1.01.27,1.01.75,0,.28-.2.48-.53.61v.02c.35.09.61.31.61.67,0,.51-.51.8-1.09.8-.47,0-.81-.16-1.02-.39Z"/>
  <g>
    <path class="cls-3" d="M48.09,39.98l.84-1c.49.4,1.09.67,1.72.67s.91-.24.91-.56c0-.47-.38-.58-1-.83l-.84-.36c-.72-.27-1.37-.82-1.37-1.76,0-1.07.96-1.93,2.37-1.93.78,0,1.56.29,2.15.85l-.74.92c-.46-.33-.86-.5-1.49-.5-.48,0-.81.2-.81.58s.43.53,1.05.76l.79.33c.85.32,1.38.85,1.38,1.76,0,1.07-.9,2-2.5,2-.87,0-1.78-.32-2.46-.93Z"/>
    <path class="cls-3" d="M54.45,34.34h4.28v1.23h-2.82v1.3h2.4v1.23h-2.4v1.49h2.92v1.23h-4.38v-6.46Z"/>
    <path class="cls-3" d="M60.02,37.6c0-2.14,1.36-3.39,3.09-3.39.82,0,1.49.39,1.93.82l-.81.9c-.31-.29-.66-.46-1.12-.46-.92,0-1.59.78-1.59,2.07s.67,2.1,1.65,2.1c.47,0,.85-.23,1.16-.57l.81.88c-.53.62-1.25.95-2.12.95-1.61,0-2.99-1.14-2.99-3.31Z"/>
    <path class="cls-3" d="M66.12,34.34h2.3c1.37,0,2.5.48,2.5,2.01s-1.13,2.12-2.5,2.12h-.83v2.33h-1.47v-6.46ZM68.3,37.31c.77,0,1.18-.33,1.18-.96s-.41-.85-1.18-.85h-.71v1.82h.71ZM69.16,37.15l2.06,3.65h-1.64l-1.44-2.71,1.01-.94Z"/>
    <path class="cls-3" d="M72.29,34.34h4.28v1.23h-2.82v1.3h2.4v1.23h-2.4v1.49h2.92v1.23h-4.38v-6.46Z"/>
    <path class="cls-3" d="M79.57,35.56h-1.94v-1.23h5.34v1.23h-1.94v5.24h-1.46v-5.24Z"/>
  </g>
  <g>
    <path class="cls-4" d="M48.09,107.01l.84-1c.49.4,1.09.67,1.72.67s.91-.24.91-.56c0-.47-.38-.58-1-.83l-.84-.36c-.72-.27-1.37-.82-1.37-1.76,0-1.07.96-1.93,2.37-1.93.78,0,1.56.29,2.15.85l-.74.92c-.46-.33-.86-.5-1.49-.5-.48,0-.81.2-.81.58s.43.53,1.05.76l.79.33c.85.32,1.38.84,1.38,1.76,0,1.07-.9,2-2.5,2-.87,0-1.78-.32-2.46-.93Z"/>
    <path class="cls-4" d="M54.45,101.36h4.28v1.23h-2.82v1.3h2.4v1.23h-2.4v1.49h2.92v1.23h-4.38v-6.46Z"/>
    <path class="cls-4" d="M60.02,104.63c0-2.14,1.36-3.39,3.09-3.39.82,0,1.49.39,1.93.82l-.81.9c-.31-.29-.66-.46-1.12-.46-.92,0-1.59.78-1.59,2.07s.67,2.1,1.65,2.1c.47,0,.85-.23,1.16-.57l.81.88c-.53.62-1.25.95-2.12.95-1.61,0-2.99-1.13-2.99-3.31Z"/>
    <path class="cls-4" d="M66.12,101.36h2.3c1.37,0,2.5.48,2.5,2.01s-1.13,2.12-2.5,2.12h-.83v2.33h-1.47v-6.46ZM68.3,104.34c.77,0,1.18-.33,1.18-.96s-.41-.85-1.18-.85h-.71v1.82h.71ZM69.16,104.18l2.06,3.65h-1.64l-1.44-2.71,1.01-.94Z"/>
    <path class="cls-4" d="M72.29,101.36h4.28v1.23h-2.82v1.3h2.4v1.23h-2.4v1.49h2.92v1.23h-4.38v-6.46Z"/>
    <path class="cls-4" d="M79.57,102.59h-1.94v-1.23h5.34v1.23h-1.94v5.24h-1.46v-5.24Z"/>
  </g>
</svg>