<?xml version="1.0" encoding="UTF-8"?>
<svg id="Layer_1" data-name="Layer 1" xmlns="http://www.w3.org/2000/svg" viewBox="0 0 217.43 162.05">
  <defs>
    <style>
      .cls-1 {
        fill: #fff;
        stroke: #231f20;
        stroke-miterlimit: 10;
        stroke-width: .92px;
      }

      .cls-2 {
        fill: none;
      }

      .cls-2, .cls-3, .cls-4 {
        stroke-width: 0px;
      }

      .cls-3 {
        fill: #808285;
      }

      .cls-4 {
        fill: #231f20;
      }
    </style>
  </defs>
  <rect class="cls-2" width="217.43" height="162.05" rx="11.55" ry="11.55"/>
  <rect class="cls-1" x="41.36" y="24.53" width="54.82" height="38.47" rx="4.5" ry="4.5"/>
  <rect class="cls-1" x="140.74" y="44.21" width="34.44" height="26.06" rx="2.93" ry="2.93"/>
  <rect class="cls-1" x="154.72" y="54.52" width="6.3" height="7.54" rx=".67" ry=".67"/>
  <rect class="cls-1" x="145.83" y="54.52" width="6.3" height="7.54" rx=".67" ry=".67"/>
  <rect class="cls-1" x="164.17" y="54.52" width="6.3" height="7.54" rx=".67" ry=".67"/>
  <rect class="cls-1" x="41.11" y="98.34" width="54.82" height="38.47" rx="4.5" ry="4.5"/>
  <g>
    <path class="cls-4" d="M41.75,65.39h1.02v1.96h1.22v-1.96h1.02v5.1h-1.02v-2.13h-1.22v2.13h-1.02v-5.1Z"/>
    <path class="cls-4" d="M45.98,69.53h1.05v-3.17h-1.05v-.97h3.13v.97h-1.05v3.17h1.05v.97h-3.13v-.97Z"/>
    <path class="cls-4" d="M50.11,65.39h1.25c1.31,0,2.17.77,2.17,2.53s-.86,2.57-2.11,2.57h-1.31v-5.1ZM51.3,69.57c.7,0,1.18-.42,1.18-1.64s-.48-1.6-1.18-1.6h-.17v3.24h.17Z"/>
    <path class="cls-4" d="M54.27,65.39h1.25c1.31,0,2.17.77,2.17,2.53s-.86,2.57-2.11,2.57h-1.31v-5.1ZM55.46,69.57c.7,0,1.18-.42,1.18-1.64s-.48-1.6-1.18-1.6h-.17v3.24h.17Z"/>
    <path class="cls-4" d="M58.58,65.39h2.99v.97h-1.97v1.02h1.67v.97h-1.67v1.17h2.04v.97h-3.06v-5.1Z"/>
    <path class="cls-4" d="M62.56,65.39h1.05l.95,2.54.39,1.12h.02c-.05-.54-.14-1.25-.14-1.85v-1.8h.97v5.1h-1.05l-.95-2.54-.39-1.12h-.02c.05.56.14,1.25.14,1.85v1.81h-.97v-5.1Z"/>
  </g>
  <g>
    <path class="cls-4" d="M40.49,139.32h1.08l.54,2.38c.13.56.23,1.07.36,1.63h.03c.14-.56.23-1.08.36-1.63l.53-2.38h1.05l-1.36,5.1h-1.23l-1.37-5.1Z"/>
    <path class="cls-4" d="M45.06,143.45h1.05v-3.17h-1.05v-.97h3.13v.97h-1.05v3.17h1.05v.97h-3.13v-.97Z"/>
    <path class="cls-4" d="M49.06,143.78l.59-.79c.34.32.76.53,1.2.53s.63-.19.63-.44c0-.37-.27-.46-.7-.66l-.59-.28c-.5-.21-.96-.65-.96-1.39,0-.85.67-1.52,1.65-1.52.54,0,1.09.23,1.5.67l-.51.73c-.32-.26-.6-.4-1.04-.4-.34,0-.57.16-.57.46s.3.42.74.6l.55.26c.59.25.96.67.96,1.39,0,.85-.63,1.58-1.75,1.58-.61,0-1.24-.25-1.72-.74Z"/>
    <path class="cls-4" d="M53.38,143.45h1.05v-3.17h-1.05v-.97h3.13v.97h-1.05v3.17h1.05v.97h-3.13v-.97Z"/>
    <path class="cls-4" d="M57.54,139.32h1.52c.94,0,1.65.29,1.65,1.26,0,.46-.24.95-.77,1.1v.03c.65.13.98.52.98,1.2,0,1.04-.75,1.5-1.74,1.5h-1.65v-5.1ZM59.01,141.37c.5,0,.7-.24.7-.62s-.22-.53-.7-.53h-.46v1.15h.45ZM59.1,143.52c.56,0,.82-.23.82-.69s-.26-.63-.82-.63h-.54v1.33h.54Z"/>
    <path class="cls-4" d="M61.92,139.32h1.02v4.13h2.01v.97h-3.03v-5.1Z"/>
    <path class="cls-4" d="M65.98,139.32h2.99v.97h-1.97v1.02h1.67v.97h-1.67v1.17h2.04v.97h-3.06v-5.1Z"/>
  </g>
  <path class="cls-1" d="M158.11,21.95c11.68.47,11.15,22,11.15,22,.02-.02-3.69,0-3.69,0,0,0-.34-18.04-7.35-18.14h-.06c-7.02.1-7.36,18.14-7.36,18.14h-4.04s-.41-21.53,11.28-22h.07Z"/>
  <path class="cls-1" d="M157.92,88.1c11.68.47,11.15,22,11.15,22,.02-.02-3.69,0-3.69,0,0,0-.34-18.04-7.35-18.14h-.06c-7.02.1-6.76,8.13-6.76,8.13h-4.04s-1.01-11.52,10.68-11.99h.07Z"/>
  <rect class="cls-1" x="139.69" y="109.77" width="34.44" height="26.06" rx="2.93" ry="2.93"/>
  <rect class="cls-1" x="153.68" y="120.08" width="6.3" height="7.54" rx=".67" ry=".67"/>
  <rect class="cls-1" x="144.79" y="120.08" width="6.3" height="7.54" rx=".67" ry=".67"/>
  <rect class="cls-1" x="163.12" y="120.08" width="6.3" height="7.54" rx=".67" ry=".67"/>
  <path class="cls-4" d="M146.75,124.73h.82v-1.77h-.68v-.44c.41-.06.63-.14.87-.28h.52v2.49h.7v.57h-2.23v-.57Z"/>
  <path class="cls-4" d="M155.94,124.73h.82v-1.77h-.68v-.44c.41-.06.63-.14.87-.28h.52v2.49h.7v.57h-2.23v-.57Z"/>
  <path class="cls-4" d="M165.12,124.73h.82v-1.77h-.68v-.44c.41-.06.63-.14.87-.28h.52v2.49h.7v.57h-2.23v-.57Z"/>
  <path class="cls-4" d="M147.94,59.27h.82v-1.77h-.68v-.44c.41-.06.63-.14.87-.28h.52v2.49h.7v.57h-2.23v-.57Z"/>
  <path class="cls-4" d="M157.02,59.44c.88-.74,1.47-1.26,1.47-1.7,0-.3-.18-.46-.51-.46-.24,0-.44.15-.62.31l-.38-.38c.32-.32.62-.48,1.09-.48.65,0,1.08.39,1.08.98,0,.52-.53,1.07-1.12,1.58.18-.02.4-.03.56-.03h.73v.6h-2.3v-.41Z"/>
  <path class="cls-4" d="M166.13,59.47l.33-.45c.2.18.47.31.75.31.33,0,.57-.13.57-.36,0-.27-.21-.44-.92-.44v-.5c.6,0,.82-.17.82-.41,0-.21-.18-.34-.45-.34-.24,0-.44.1-.65.27l-.36-.43c.3-.24.64-.39,1.04-.39.67,0,1.13.3,1.13.84,0,.32-.22.54-.59.68v.02c.39.1.69.35.69.75,0,.57-.57.89-1.21.89-.52,0-.91-.18-1.14-.43Z"/>
  <g>
    <path class="cls-3" d="M50.1,45.57l.94-1.12c.54.45,1.22.75,1.92.75s1.01-.27,1.01-.62c0-.52-.43-.64-1.11-.93l-.94-.4c-.8-.3-1.53-.92-1.53-1.97,0-1.19,1.08-2.15,2.64-2.15.87,0,1.74.33,2.39.94l-.82,1.03c-.51-.36-.96-.56-1.66-.56-.54,0-.9.22-.9.64s.48.59,1.17.85l.88.37c.94.35,1.54.94,1.54,1.96,0,1.2-1.01,2.24-2.79,2.24-.97,0-1.98-.36-2.75-1.04Z"/>
    <path class="cls-3" d="M57.2,39.27h4.78v1.37h-3.15v1.45h2.67v1.37h-2.67v1.66h3.26v1.37h-4.89v-7.21Z"/>
    <path class="cls-3" d="M63.42,42.92c0-2.39,1.51-3.78,3.44-3.78.91,0,1.66.44,2.15.92l-.9,1.01c-.34-.32-.73-.52-1.25-.52-1.02,0-1.77.87-1.77,2.31s.75,2.34,1.83,2.34c.52,0,.95-.26,1.3-.64l.9.99c-.59.7-1.4,1.06-2.37,1.06-1.79,0-3.34-1.27-3.34-3.7Z"/>
    <path class="cls-3" d="M70.23,39.27h2.56c1.53,0,2.78.53,2.78,2.25s-1.26,2.37-2.78,2.37h-.93v2.59h-1.63v-7.21ZM72.66,42.59c.86,0,1.32-.37,1.32-1.07s-.46-.95-1.32-.95h-.8v2.03h.8ZM73.63,42.41l2.3,4.07h-1.83l-1.6-3.02,1.13-1.05Z"/>
    <path class="cls-3" d="M77.13,39.27h4.78v1.37h-3.15v1.45h2.67v1.37h-2.67v1.66h3.26v1.37h-4.89v-7.21Z"/>
    <path class="cls-3" d="M85.25,40.64h-2.16v-1.37h5.95v1.37h-2.16v5.84h-1.63v-5.84Z"/>
  </g>
  <g>
    <path class="cls-4" d="M50.1,120.41l.94-1.12c.54.45,1.22.75,1.92.75s1.01-.27,1.01-.62c0-.52-.43-.64-1.11-.93l-.94-.4c-.8-.3-1.53-.92-1.53-1.97,0-1.19,1.08-2.15,2.64-2.15.87,0,1.74.33,2.39.94l-.82,1.03c-.51-.36-.96-.56-1.66-.56-.54,0-.9.22-.9.64s.48.59,1.17.85l.88.37c.94.35,1.54.94,1.54,1.96,0,1.2-1.01,2.24-2.79,2.24-.97,0-1.98-.36-2.75-1.04Z"/>
    <path class="cls-4" d="M57.2,114.11h4.78v1.37h-3.15v1.45h2.67v1.37h-2.67v1.66h3.26v1.37h-4.89v-7.21Z"/>
    <path class="cls-4" d="M63.42,117.76c0-2.39,1.51-3.78,3.44-3.78.91,0,1.66.44,2.15.92l-.9,1.01c-.34-.32-.73-.52-1.25-.52-1.02,0-1.77.87-1.77,2.31s.75,2.34,1.83,2.34c.52,0,.95-.26,1.3-.64l.9.99c-.59.7-1.4,1.06-2.37,1.06-1.79,0-3.34-1.27-3.34-3.7Z"/>
    <path class="cls-4" d="M70.23,114.11h2.56c1.53,0,2.78.53,2.78,2.25s-1.26,2.37-2.78,2.37h-.93v2.59h-1.63v-7.21ZM72.66,117.43c.86,0,1.32-.37,1.32-1.07s-.46-.95-1.32-.95h-.8v2.03h.8ZM73.63,117.25l2.3,4.07h-1.83l-1.6-3.02,1.13-1.05Z"/>
    <path class="cls-4" d="M77.13,114.11h4.78v1.37h-3.15v1.45h2.67v1.37h-2.67v1.66h3.26v1.37h-4.89v-7.21Z"/>
    <path class="cls-4" d="M85.25,115.48h-2.16v-1.37h5.95v1.37h-2.16v5.84h-1.63v-5.84Z"/>
  </g>
</svg>