<?xml version="1.0" encoding="UTF-8"?>
<svg id="Layer_1" data-name="Layer 1" xmlns="http://www.w3.org/2000/svg" viewBox="0 0 195.63 146.03">
  <defs>
    <style>
      .cls-1, .cls-2 {
        stroke-width: .9px;
      }

      .cls-1, .cls-2, .cls-3, .cls-4 {
        stroke-miterlimit: 10;
      }

      .cls-1, .cls-3, .cls-4 {
        stroke: #231f20;
      }

      .cls-1, .cls-4 {
        fill: #fff;
      }

      .cls-2 {
        fill: #d8d8d8;
        stroke: #fff;
      }

      .cls-3 {
        fill: #d1d3d4;
      }

      .cls-3, .cls-4 {
        stroke-width: .88px;
      }

      .cls-5 {
        fill: #231f20;
        stroke-width: 0px;
      }
    </style>
  </defs>
  <rect class="cls-2" x=".45" y=".45" width="194.73" height="145.13" rx="1.82" ry="1.82"/>
  <rect class="cls-4" x="57.81" y="19.97" width="71.51" height="17.2" rx="1.81" ry="1.81"/>
  <rect class="cls-4" x="58.02" y="64.23" width="71.51" height="17.2" rx="1.81" ry="1.81"/>
  <rect class="cls-1" x="78.07" y="81.59" width="51.9" height="43.82" rx="2.46" ry="2.46"/>
  <rect class="cls-3" x="78.42" y="81.97" width="51.01" height="14.57" rx="1.95" ry="1.95"/>
  <polygon class="cls-1" points="116.2 91.92 117.06 99.18 118.67 96.94 121.38 96.77 116.2 91.92"/>
  <g>
    <path class="cls-5" d="M65.32,26.91h1.12c1.17,0,1.95.64,1.95,2.09s-.77,2.13-1.89,2.13h-1.17v-4.23ZM66.39,30.36c.63,0,1.06-.35,1.06-1.36s-.43-1.32-1.06-1.32h-.15v2.69h.15Z"/>
    <path class="cls-5" d="M69.04,26.91h1.44c.86,0,1.56.31,1.56,1.32s-.71,1.39-1.56,1.39h-.52v1.52h-.92v-4.23ZM70.4,28.86c.48,0,.74-.22.74-.63s-.26-.56-.74-.56h-.45v1.19h.45ZM70.94,28.75l1.29,2.39h-1.02l-.9-1.77.63-.61Z"/>
    <path class="cls-5" d="M72.57,29c0-1.41.66-2.17,1.63-2.17s1.63.76,1.63,2.17-.66,2.21-1.63,2.21-1.63-.76-1.63-2.21ZM74.88,29c0-.88-.27-1.35-.69-1.35s-.69.47-.69,1.35.27,1.38.69,1.38.69-.47.69-1.38Z"/>
    <path class="cls-5" d="M76.52,26.91h1.44c.88,0,1.59.33,1.59,1.36s-.73,1.43-1.59,1.43h-.52v1.43h-.92v-4.23ZM77.9,28.94c.5,0,.74-.24.74-.67s-.26-.6-.74-.6h-.47v1.27h.47Z"/>
    <path class="cls-5" d="M80.22,26.91h1.12c1.17,0,1.95.64,1.95,2.09s-.77,2.13-1.89,2.13h-1.17v-4.23ZM81.28,30.36c.63,0,1.06-.35,1.06-1.36s-.43-1.32-1.06-1.32h-.15v2.69h.15Z"/>
    <path class="cls-5" d="M83.74,29c0-1.41.66-2.17,1.63-2.17s1.63.76,1.63,2.17-.66,2.21-1.63,2.21-1.63-.76-1.63-2.21ZM86.06,29c0-.88-.27-1.35-.69-1.35s-.69.47-.69,1.35.27,1.38.69,1.38.69-.47.69-1.38Z"/>
    <path class="cls-5" d="M87.25,26.91h.95l.12,2.25c.01.36.02.68.02,1.06h.02c.06-.38.13-.7.2-1.06l.27-1.18h.59l.25,1.18c.06.35.14.67.2,1.06h.02c0-.39.01-.71.02-1.06l.12-2.25h.89l-.5,4.23h-.98l-.24-1.31c-.05-.27-.09-.55-.11-.81h-.02c-.03.25-.06.54-.11.81l-.23,1.31h-.96l-.54-4.23Z"/>
    <path class="cls-5" d="M91.36,26.91h.94l.85,2.1.35.93h.02c-.04-.44-.13-1.04-.13-1.54v-1.49h.87v4.23h-.94l-.85-2.11-.35-.92h-.02c.04.47.13,1.03.13,1.53v1.5h-.87v-4.23Z"/>
    <path class="cls-5" d="M98.76,26.91h.96l.4,1.5.14.58h.02l.13-.58.4-1.5h.96v4.23h-.77v-1.31c0-.48.08-1.51.12-1.96h-.02l-.31,1.13-.31,1.02h-.44l-.32-1.02-.29-1.13h-.02c.05.46.12,1.49.12,1.96v1.31h-.76v-4.23Z"/>
    <path class="cls-5" d="M102.7,26.91h2.68v.8h-1.77v.85h1.5v.8h-1.5v.97h1.83v.8h-2.74v-4.23Z"/>
    <path class="cls-5" d="M106.26,26.91h.94l.85,2.1.35.93h.02c-.04-.44-.13-1.04-.13-1.54v-1.49h.87v4.23h-.94l-.85-2.11-.35-.92h-.02c.04.47.13,1.03.13,1.53v1.5h-.87v-4.23Z"/>
    <path class="cls-5" d="M109.97,29.51v-2.6h.92v2.7c0,.51.18.78.56.78s.57-.28.57-.78v-2.7h.88v2.6c0,1.1-.47,1.7-1.46,1.7s-1.48-.61-1.48-1.7Z"/>
  </g>
  <path class="cls-5" d="M121.79,30.18h-.74s-.95-2.57-.95-2.57h.75s.28.83.28.83l.28.88h.02l.28-.88.29-.83h.75s-.97,2.57-.97,2.57Z"/>
  <g>
    <path class="cls-5" d="M65.53,71.17h1.12c1.17,0,1.95.64,1.95,2.09s-.77,2.13-1.89,2.13h-1.17v-4.23ZM66.6,74.62c.63,0,1.06-.35,1.06-1.36s-.43-1.32-1.06-1.32h-.15v2.68h.15Z"/>
    <path class="cls-5" d="M69.25,71.17h1.44c.86,0,1.56.31,1.56,1.32s-.71,1.39-1.56,1.39h-.52v1.52h-.92v-4.23ZM70.62,73.12c.48,0,.74-.22.74-.63s-.26-.56-.74-.56h-.45v1.19h.45ZM71.16,73.01l1.29,2.38h-1.02l-.9-1.77.63-.61Z"/>
    <path class="cls-5" d="M72.78,73.26c0-1.41.66-2.17,1.63-2.17s1.63.76,1.63,2.17-.66,2.21-1.63,2.21-1.63-.76-1.63-2.21ZM75.1,73.26c0-.88-.27-1.35-.69-1.35s-.69.47-.69,1.35.27,1.38.69,1.38.69-.47.69-1.38Z"/>
    <path class="cls-5" d="M76.73,71.17h1.44c.88,0,1.59.33,1.59,1.36s-.73,1.43-1.59,1.43h-.52v1.43h-.92v-4.23ZM78.12,73.2c.5,0,.74-.24.74-.67s-.26-.6-.74-.6h-.47v1.27h.47Z"/>
    <path class="cls-5" d="M80.43,71.17h1.12c1.17,0,1.95.64,1.95,2.09s-.77,2.13-1.89,2.13h-1.17v-4.23ZM81.5,74.62c.63,0,1.06-.35,1.06-1.36s-.43-1.32-1.06-1.32h-.15v2.68h.15Z"/>
    <path class="cls-5" d="M83.96,73.26c0-1.41.66-2.17,1.63-2.17s1.63.76,1.63,2.17-.66,2.21-1.63,2.21-1.63-.76-1.63-2.21ZM86.27,73.26c0-.88-.27-1.35-.69-1.35s-.69.47-.69,1.35.27,1.38.69,1.38.69-.47.69-1.38Z"/>
    <path class="cls-5" d="M87.47,71.17h.95l.12,2.25c.01.36.02.68.02,1.06h.02c.06-.38.13-.7.2-1.06l.27-1.18h.59l.25,1.18c.06.35.14.67.2,1.06h.02c0-.39.01-.71.02-1.06l.12-2.25h.89l-.5,4.23h-.98l-.24-1.31c-.05-.27-.09-.55-.11-.81h-.02c-.03.25-.06.54-.11.81l-.23,1.31h-.96l-.54-4.23Z"/>
    <path class="cls-5" d="M91.58,71.17h.94l.85,2.1.35.93h.02c-.04-.44-.13-1.04-.13-1.54v-1.49h.87v4.23h-.94l-.85-2.11-.35-.92h-.02c.04.47.13,1.03.13,1.53v1.5h-.87v-4.23Z"/>
    <path class="cls-5" d="M98.98,71.17h.96l.4,1.5.14.58h.02l.13-.58.4-1.5h.96v4.23h-.77v-1.31c0-.48.08-1.51.12-1.96h-.02l-.31,1.13-.31,1.02h-.44l-.32-1.02-.29-1.13h-.02c.05.46.12,1.49.12,1.96v1.31h-.76v-4.23Z"/>
    <path class="cls-5" d="M102.92,71.17h2.68v.8h-1.77v.85h1.5v.8h-1.5v.97h1.83v.8h-2.74v-4.23Z"/>
    <path class="cls-5" d="M106.48,71.17h.94l.85,2.1.35.93h.02c-.04-.44-.13-1.04-.13-1.54v-1.49h.87v4.23h-.94l-.85-2.11-.35-.92h-.02c.04.47.13,1.03.13,1.53v1.5h-.87v-4.23Z"/>
    <path class="cls-5" d="M110.19,73.77v-2.6h.92v2.7c0,.51.18.78.56.78s.57-.28.57-.78v-2.7h.88v2.6c0,1.1-.47,1.71-1.46,1.71s-1.48-.61-1.48-1.71Z"/>
  </g>
  <g>
    <path class="cls-5" d="M82,89.03c0-1.17.55-1.8,1.35-1.8s1.35.63,1.35,1.8-.55,1.83-1.35,1.83-1.35-.63-1.35-1.83ZM83.92,89.03c0-.73-.22-1.11-.57-1.11s-.57.39-.57,1.11.22,1.15.57,1.15.57-.39.57-1.15Z"/>
    <path class="cls-5" d="M85.26,88.14h.62l.05.27h.02c.21-.2.49-.34.76-.34.64,0,1.02.53,1.02,1.36,0,.91-.54,1.44-1.11,1.44-.22,0-.45-.1-.63-.29h-.02l.04.43v.78h-.76v-3.65ZM86.96,89.43c0-.48-.15-.72-.47-.72-.16,0-.31.07-.47.25v1.08c.14.13.3.18.44.18.28,0,.5-.23.5-.78Z"/>
    <path class="cls-5" d="M88.87,89.7v-.94h-.64v-.59l.68-.03.1-.81h.63v.81h1.08v.62h-1.08v.93c0,.41.16.56.54.56.19,0,.35-.04.5-.09l.14.57c-.23.07-.49.14-.83.14-.81,0-1.1-.47-1.1-1.17Z"/>
    <path class="cls-5" d="M92.49,88.76h-1.03v-.62h1.78v2.67h-.76v-2.04ZM92.33,87.24c0-.29.21-.49.5-.49s.5.2.5.49-.21.48-.5.48-.5-.19-.5-.48Z"/>
    <path class="cls-5" d="M94.38,89.47c0-.89.63-1.4,1.3-1.4s1.3.51,1.3,1.4-.63,1.4-1.3,1.4-1.3-.51-1.3-1.4ZM96.21,89.47c0-.46-.18-.76-.53-.76s-.53.3-.53.76.18.76.53.76.53-.3.53-.76Z"/>
    <path class="cls-5" d="M97.6,88.14h.62l.05.36h.02c.22-.23.5-.42.88-.42.58,0,.83.41.83,1.08v1.65h-.76v-1.54c0-.35-.1-.51-.37-.51-.2,0-.34.1-.52.28v1.78h-.76v-2.67Z"/>
    <path class="cls-5" d="M103.8,90.16h.88v-1.97h-.72v-.49c.44-.07.67-.15.93-.31h.56v2.77h.74v.64h-2.38v-.64Z"/>
  </g>
  <g>
    <path class="cls-5" d="M81.88,119.25c0-1.17.55-1.8,1.35-1.8s1.35.63,1.35,1.8-.55,1.83-1.35,1.83-1.35-.63-1.35-1.83ZM83.8,119.25c0-.73-.22-1.11-.57-1.11s-.57.39-.57,1.11.22,1.15.57,1.15.57-.39.57-1.15Z"/>
    <path class="cls-5" d="M85.14,118.35h.62l.05.27h.02c.21-.2.49-.33.76-.33.64,0,1.02.53,1.02,1.36,0,.91-.54,1.44-1.11,1.44-.22,0-.45-.1-.63-.29h-.02l.04.43v.78h-.76v-3.65ZM86.84,119.65c0-.48-.15-.72-.47-.72-.16,0-.31.07-.47.25v1.07c.14.13.3.18.44.18.28,0,.5-.23.5-.78Z"/>
    <path class="cls-5" d="M88.75,119.91v-.94h-.64v-.59l.68-.03.1-.81h.63v.81h1.08v.62h-1.08v.93c0,.41.16.56.54.56.19,0,.35-.04.5-.09l.14.57c-.23.07-.49.14-.83.14-.81,0-1.1-.47-1.1-1.17Z"/>
    <path class="cls-5" d="M92.37,118.97h-1.03v-.62h1.78v2.66h-.76v-2.04ZM92.21,117.45c0-.29.21-.49.5-.49s.5.2.5.49-.21.48-.5.48-.5-.19-.5-.48Z"/>
    <path class="cls-5" d="M94.27,119.68c0-.89.63-1.4,1.3-1.4s1.3.51,1.3,1.4-.63,1.39-1.3,1.39-1.3-.51-1.3-1.39ZM96.09,119.68c0-.46-.18-.76-.53-.76s-.53.3-.53.76.18.76.53.76.53-.3.53-.76Z"/>
    <path class="cls-5" d="M97.48,118.35h.62l.05.35h.02c.22-.23.5-.42.88-.42.58,0,.83.41.83,1.08v1.65h-.76v-1.54c0-.36-.1-.51-.37-.51-.2,0-.34.1-.52.28v1.78h-.76v-2.66Z"/>
    <path class="cls-5" d="M103.49,120.59l.35-.5c.22.2.5.34.8.34.35,0,.61-.14.61-.41,0-.3-.22-.48-.98-.48v-.56c.64,0,.88-.19.88-.46,0-.24-.19-.37-.48-.37-.26,0-.47.11-.69.3l-.38-.48c.32-.27.69-.44,1.11-.44.71,0,1.21.34,1.21.94,0,.35-.23.6-.62.76v.02c.41.11.73.39.73.83,0,.63-.61.99-1.3.99-.56,0-.97-.2-1.22-.48Z"/>
  </g>
  <g>
    <path class="cls-5" d="M81.88,103.66c0-1.17.55-1.8,1.35-1.8s1.35.63,1.35,1.8-.55,1.83-1.35,1.83-1.35-.63-1.35-1.83ZM83.8,103.66c0-.73-.22-1.11-.57-1.11s-.57.39-.57,1.11.22,1.15.57,1.15.57-.39.57-1.15Z"/>
    <path class="cls-5" d="M85.14,102.77h.62l.05.27h.02c.21-.2.49-.34.76-.34.64,0,1.02.53,1.02,1.36,0,.91-.54,1.44-1.11,1.44-.22,0-.45-.1-.63-.29h-.02l.04.43v.78h-.76v-3.65ZM86.84,104.07c0-.48-.15-.72-.47-.72-.16,0-.31.07-.47.25v1.08c.14.13.3.18.44.18.28,0,.5-.23.5-.78Z"/>
    <path class="cls-5" d="M88.75,104.33v-.94h-.64v-.59l.68-.03.1-.81h.63v.81h1.08v.62h-1.08v.93c0,.41.16.56.54.56.19,0,.35-.04.5-.09l.14.57c-.23.07-.49.14-.83.14-.81,0-1.1-.47-1.1-1.17Z"/>
    <path class="cls-5" d="M92.37,103.39h-1.03v-.62h1.78v2.67h-.76v-2.04ZM92.21,101.87c0-.29.21-.49.5-.49s.5.2.5.49-.21.48-.5.48-.5-.19-.5-.48Z"/>
    <path class="cls-5" d="M94.27,104.1c0-.89.63-1.4,1.3-1.4s1.3.51,1.3,1.4-.63,1.4-1.3,1.4-1.3-.51-1.3-1.4ZM96.09,104.1c0-.46-.18-.76-.53-.76s-.53.3-.53.76.18.76.53.76.53-.3.53-.76Z"/>
    <path class="cls-5" d="M97.48,102.77h.62l.05.36h.02c.22-.23.5-.42.88-.42.58,0,.83.41.83,1.08v1.65h-.76v-1.54c0-.35-.1-.51-.37-.51-.2,0-.34.1-.52.28v1.78h-.76v-2.67Z"/>
    <path class="cls-5" d="M103.57,104.98c.94-.82,1.57-1.4,1.57-1.89,0-.33-.2-.51-.54-.51-.26,0-.47.17-.66.35l-.41-.43c.34-.36.67-.54,1.17-.54.69,0,1.15.43,1.15,1.09,0,.58-.56,1.19-1.2,1.76.19-.02.42-.04.59-.04h.77v.66h-2.45v-.45Z"/>
  </g>
  <path class="cls-5" d="M122,74.44h-.74s-.95-2.57-.95-2.57h.75s.28.83.28.83l.28.88h.02l.29-.88.29-.83h.75s-.97,2.57-.97,2.57Z"/>
</svg>