<?xml version="1.0" encoding="UTF-8"?>
<svg id="Layer_1" data-name="Layer 1" xmlns="http://www.w3.org/2000/svg" viewBox="0 0 217.43 162.05">
  <defs>
    <style>
      .cls-1 {
        fill: none;
      }

      .cls-1, .cls-2, .cls-3 {
        stroke-width: 0px;
      }

      .cls-4 {
        stroke-width: .98px;
      }

      .cls-4, .cls-5 {
        fill: #fff;
        stroke: #231f20;
        stroke-miterlimit: 10;
      }

      .cls-2 {
        fill: #231f20;
      }

      .cls-3 {
        fill: #bcbec0;
      }
    </style>
  </defs>
  <rect class="cls-4" x="64.05" y="21.8" width="79.85" height="19.21" rx="2.02" ry="2.02"/>
  <rect class="cls-4" x="64.29" y="71.22" width="79.85" height="19.21" rx="2.02" ry="2.02"/>
  <rect class="cls-5" x="86.67" y="90.6" width="57.95" height="48.93" rx="2.74" ry="2.74"/>
  <rect class="cls-3" x="87.06" y="91.03" width="56.95" height="16.27" rx="2.18" ry="2.18"/>
  <polygon class="cls-5" points="129.25 102.14 130.21 110.24 132.01 107.74 135.03 107.55 129.25 102.14"/>
  <rect class="cls-1" width="217.43" height="162.05" rx="2.04" ry="2.04"/>
  <g>
    <path class="cls-2" d="M72.43,29.54h1.25c1.31,0,2.17.72,2.17,2.34s-.86,2.38-2.11,2.38h-1.3v-4.72ZM73.62,33.4c.7,0,1.18-.39,1.18-1.52s-.48-1.48-1.18-1.48h-.17v3h.17Z"/>
    <path class="cls-2" d="M76.58,29.54h1.6c.96,0,1.74.35,1.74,1.47s-.79,1.55-1.74,1.55h-.58v1.7h-1.02v-4.72ZM78.11,31.72c.54,0,.82-.24.82-.7s-.29-.62-.82-.62h-.5v1.33h.5ZM78.71,31.6l1.44,2.67h-1.14l-1-1.98.71-.69Z"/>
    <path class="cls-2" d="M80.53,31.88c0-1.58.74-2.43,1.82-2.43s1.82.85,1.82,2.43-.74,2.47-1.82,2.47-1.82-.85-1.82-2.47ZM83.11,31.88c0-.98-.3-1.5-.77-1.5s-.77.52-.77,1.5.3,1.55.77,1.55.77-.53.77-1.55Z"/>
    <path class="cls-2" d="M84.94,29.54h1.6c.98,0,1.77.37,1.77,1.52s-.81,1.6-1.77,1.6h-.58v1.6h-1.02v-4.72ZM86.48,31.81c.56,0,.83-.26.83-.75s-.29-.67-.83-.67h-.52v1.42h.52Z"/>
    <path class="cls-2" d="M89.07,29.54h1.25c1.31,0,2.17.72,2.17,2.34s-.86,2.38-2.11,2.38h-1.3v-4.72ZM90.26,33.4c.7,0,1.18-.39,1.18-1.52s-.48-1.48-1.18-1.48h-.17v3h.17Z"/>
    <path class="cls-2" d="M93,31.88c0-1.58.74-2.43,1.82-2.43s1.82.85,1.82,2.43-.74,2.47-1.82,2.47-1.82-.85-1.82-2.47ZM95.59,31.88c0-.98-.3-1.5-.77-1.5s-.77.52-.77,1.5.3,1.55.77,1.55.77-.53.77-1.55Z"/>
    <path class="cls-2" d="M96.93,29.54h1.06l.13,2.52c.01.4.02.76.02,1.19h.03c.06-.42.15-.79.22-1.18l.3-1.32h.65l.28,1.32c.07.39.15.75.22,1.18h.03c0-.43.01-.79.02-1.18l.13-2.52h.99l-.56,4.73h-1.09l-.27-1.46c-.05-.3-.1-.62-.12-.9h-.02c-.03.28-.06.6-.12.9l-.26,1.46h-1.07l-.6-4.73Z"/>
    <path class="cls-2" d="M101.52,29.54h1.05l.95,2.35.39,1.04h.02c-.05-.5-.14-1.16-.14-1.72v-1.67h.97v4.72h-1.05l-.95-2.35-.39-1.03h-.02c.05.52.14,1.16.14,1.71v1.68h-.97v-4.72Z"/>
    <path class="cls-2" d="M109.77,29.54h1.07l.44,1.67.15.65h.03l.15-.65.44-1.67h1.07v4.72h-.86v-1.46c0-.53.09-1.68.14-2.19h-.02l-.35,1.27-.35,1.14h-.5l-.36-1.14-.32-1.27h-.02c.05.51.14,1.66.14,2.19v1.46h-.85v-4.72Z"/>
    <path class="cls-2" d="M114.17,29.54h2.99v.9h-1.97v.95h1.67v.9h-1.67v1.09h2.04v.9h-3.06v-4.72Z"/>
    <path class="cls-2" d="M118.15,29.54h1.05l.95,2.35.39,1.04h.02c-.05-.5-.14-1.16-.14-1.72v-1.67h.97v4.72h-1.05l-.95-2.35-.39-1.03h-.02c.05.52.14,1.16.14,1.71v1.68h-.97v-4.72Z"/>
    <path class="cls-2" d="M122.29,32.45v-2.9h1.02v3.01c0,.57.2.87.62.87s.64-.31.64-.87v-3.01h.99v2.9c0,1.23-.53,1.91-1.62,1.91s-1.65-.68-1.65-1.91Z"/>
  </g>
  <path class="cls-2" d="M135.35,33.09h-.82s-1.06-2.88-1.06-2.88h.84s.31.93.31.93l.31.98h.03l.32-.98.32-.93h.84s-1.08,2.87-1.08,2.87Z"/>
  <g>
    <path class="cls-2" d="M72.67,78.96h1.25c1.31,0,2.17.72,2.17,2.34s-.86,2.38-2.11,2.38h-1.3v-4.72ZM73.87,82.82c.7,0,1.18-.39,1.18-1.52s-.48-1.48-1.18-1.48h-.17v3h.17Z"/>
    <path class="cls-2" d="M76.83,78.96h1.6c.96,0,1.74.35,1.74,1.47s-.79,1.55-1.74,1.55h-.58v1.7h-1.02v-4.72ZM78.35,81.14c.54,0,.82-.24.82-.7s-.29-.62-.82-.62h-.5v1.33h.5ZM78.95,81.02l1.44,2.67h-1.14l-1-1.98.71-.68Z"/>
    <path class="cls-2" d="M80.77,81.3c0-1.58.74-2.43,1.82-2.43s1.82.85,1.82,2.43-.74,2.47-1.82,2.47-1.82-.85-1.82-2.47ZM83.35,81.3c0-.98-.3-1.5-.77-1.5s-.77.52-.77,1.5.3,1.55.77,1.55.77-.53.77-1.55Z"/>
    <path class="cls-2" d="M85.18,78.96h1.6c.98,0,1.77.37,1.77,1.52s-.81,1.6-1.77,1.6h-.58v1.6h-1.02v-4.72ZM86.72,81.23c.56,0,.83-.26.83-.75s-.29-.67-.83-.67h-.52v1.42h.52Z"/>
    <path class="cls-2" d="M89.31,78.96h1.25c1.31,0,2.17.72,2.17,2.34s-.86,2.38-2.11,2.38h-1.3v-4.72ZM90.5,82.82c.7,0,1.18-.39,1.18-1.52s-.48-1.48-1.18-1.48h-.17v3h.17Z"/>
    <path class="cls-2" d="M93.24,81.3c0-1.58.74-2.43,1.82-2.43s1.82.85,1.82,2.43-.74,2.47-1.82,2.47-1.82-.85-1.82-2.47ZM95.83,81.3c0-.98-.3-1.5-.77-1.5s-.77.52-.77,1.5.3,1.55.77,1.55.77-.53.77-1.55Z"/>
    <path class="cls-2" d="M97.17,78.96h1.06l.13,2.52c.01.4.02.76.02,1.19h.03c.06-.42.15-.79.22-1.18l.3-1.32h.65l.28,1.32c.07.39.15.75.22,1.18h.03c0-.43.01-.79.02-1.18l.13-2.52h.99l-.56,4.73h-1.09l-.27-1.46c-.05-.3-.1-.62-.12-.9h-.02c-.03.28-.06.6-.12.9l-.26,1.46h-1.07l-.6-4.73Z"/>
    <path class="cls-2" d="M101.76,78.96h1.05l.95,2.35.39,1.04h.02c-.05-.5-.14-1.16-.14-1.72v-1.67h.97v4.72h-1.05l-.95-2.35-.39-1.03h-.02c.05.52.14,1.16.14,1.71v1.68h-.97v-4.72Z"/>
    <path class="cls-2" d="M110.02,78.96h1.07l.44,1.67.15.65h.03l.15-.65.44-1.67h1.07v4.72h-.86v-1.46c0-.53.09-1.68.14-2.19h-.02l-.35,1.27-.35,1.14h-.5l-.36-1.14-.32-1.27h-.02c.05.51.14,1.66.14,2.19v1.46h-.85v-4.72Z"/>
    <path class="cls-2" d="M114.41,78.96h2.99v.9h-1.97v.95h1.67v.9h-1.67v1.09h2.04v.9h-3.06v-4.72Z"/>
    <path class="cls-2" d="M118.39,78.96h1.05l.95,2.35.39,1.04h.02c-.04-.5-.14-1.16-.14-1.72v-1.67h.97v4.72h-1.05l-.95-2.35-.39-1.03h-.02c.05.52.14,1.16.14,1.71v1.68h-.97v-4.72Z"/>
    <path class="cls-2" d="M122.54,81.87v-2.91h1.02v3.01c0,.57.2.87.62.87s.64-.31.64-.87v-3.01h.99v2.91c0,1.23-.53,1.91-1.62,1.91s-1.65-.68-1.65-1.91Z"/>
  </g>
  <g>
    <path class="cls-2" d="M91.06,98.91c0-1.31.61-2.01,1.5-2.01s1.5.7,1.5,2.01-.61,2.04-1.5,2.04-1.5-.71-1.5-2.04ZM93.2,98.91c0-.81-.25-1.24-.64-1.24s-.64.43-.64,1.24.25,1.28.64,1.28.64-.44.64-1.28Z"/>
    <path class="cls-2" d="M94.7,97.91h.69l.06.3h.02c.23-.22.54-.38.85-.38.71,0,1.14.59,1.14,1.51,0,1.02-.6,1.61-1.23,1.61-.25,0-.5-.12-.7-.32h-.02l.04.48v.87h-.84v-4.08ZM96.59,99.36c0-.53-.17-.8-.52-.8-.18,0-.35.08-.52.28v1.2c.16.15.34.2.49.2.31,0,.56-.26.56-.87Z"/>
    <path class="cls-2" d="M98.73,99.65v-1.05h-.72v-.66l.75-.03.11-.91h.7v.91h1.2v.69h-1.2v1.04c0,.45.18.62.6.62.21,0,.39-.04.56-.11l.15.64c-.25.08-.55.16-.93.16-.91,0-1.23-.52-1.23-1.3Z"/>
    <path class="cls-2" d="M102.77,98.6h-1.15v-.69h1.99v2.97h-.84v-2.28ZM102.59,96.91c0-.32.23-.55.56-.55s.56.23.56.55-.24.54-.56.54-.56-.21-.56-.54Z"/>
    <path class="cls-2" d="M104.89,99.4c0-.99.7-1.56,1.45-1.56s1.45.57,1.45,1.56-.7,1.56-1.45,1.56-1.45-.57-1.45-1.56ZM106.93,99.4c0-.52-.2-.85-.59-.85s-.59.33-.59.85.2.85.59.85.59-.33.59-.85Z"/>
    <path class="cls-2" d="M108.47,97.91h.69l.06.4h.02c.25-.25.56-.47.98-.47.64,0,.93.46.93,1.21v1.84h-.84v-1.72c0-.4-.11-.57-.42-.57-.23,0-.38.11-.58.31v1.99h-.84v-2.97Z"/>
    <path class="cls-2" d="M115.4,100.17h.98v-2.2h-.81v-.55c.49-.08.75-.17,1.03-.35h.62v3.1h.83v.71h-2.65v-.71Z"/>
  </g>
  <g>
    <path class="cls-2" d="M90.93,132.65c0-1.31.61-2.01,1.5-2.01s1.5.7,1.5,2.01-.61,2.04-1.5,2.04-1.5-.71-1.5-2.04ZM93.07,132.65c0-.81-.25-1.24-.64-1.24s-.64.43-.64,1.24.25,1.28.64,1.28.64-.44.64-1.28Z"/>
    <path class="cls-2" d="M94.57,131.65h.69l.06.3h.02c.23-.22.54-.37.85-.37.71,0,1.14.59,1.14,1.51,0,1.02-.6,1.61-1.23,1.61-.25,0-.5-.12-.7-.32h-.02l.04.48v.87h-.84v-4.08ZM96.46,133.1c0-.53-.17-.8-.52-.8-.18,0-.35.08-.52.28v1.2c.16.15.34.2.49.2.31,0,.56-.26.56-.87Z"/>
    <path class="cls-2" d="M98.6,133.39v-1.05h-.72v-.66l.75-.04.11-.91h.7v.91h1.2v.69h-1.2v1.04c0,.45.18.62.6.62.21,0,.39-.04.56-.11l.15.64c-.25.08-.55.16-.93.16-.91,0-1.23-.52-1.23-1.3Z"/>
    <path class="cls-2" d="M102.64,132.34h-1.15v-.69h1.99v2.98h-.84v-2.28ZM102.46,130.64c0-.32.23-.55.56-.55s.56.22.56.55-.24.54-.56.54-.56-.21-.56-.54Z"/>
    <path class="cls-2" d="M104.75,133.14c0-.99.7-1.56,1.45-1.56s1.45.57,1.45,1.56-.7,1.56-1.45,1.56-1.45-.57-1.45-1.56ZM106.79,133.14c0-.52-.2-.85-.59-.85s-.59.33-.59.85.2.85.59.85.59-.33.59-.85Z"/>
    <path class="cls-2" d="M108.34,131.65h.69l.06.4h.02c.25-.25.56-.47.98-.47.64,0,.93.46.93,1.21v1.84h-.84v-1.72c0-.4-.11-.57-.42-.57-.23,0-.38.11-.58.31v1.99h-.84v-2.98Z"/>
    <path class="cls-2" d="M115.06,134.15l.39-.56c.24.22.56.38.89.38.4,0,.68-.16.68-.45,0-.33-.25-.54-1.1-.54v-.62c.71,0,.98-.21.98-.51,0-.27-.21-.42-.54-.42-.29,0-.52.12-.77.33l-.43-.54c.35-.3.77-.49,1.24-.49.8,0,1.35.38,1.35,1.04,0,.39-.26.67-.7.85v.02c.46.12.82.43.82.93,0,.71-.68,1.11-1.45,1.11-.62,0-1.08-.22-1.36-.54Z"/>
  </g>
  <g>
    <path class="cls-2" d="M90.93,115.25c0-1.31.61-2.01,1.5-2.01s1.5.7,1.5,2.01-.61,2.04-1.5,2.04-1.5-.71-1.5-2.04ZM93.07,115.25c0-.81-.25-1.24-.64-1.24s-.64.43-.64,1.24.25,1.28.64,1.28.64-.44.64-1.28Z"/>
    <path class="cls-2" d="M94.57,114.25h.69l.06.3h.02c.23-.22.54-.37.85-.37.71,0,1.14.59,1.14,1.51,0,1.02-.6,1.61-1.23,1.61-.25,0-.5-.12-.7-.32h-.02l.04.48v.87h-.84v-4.08ZM96.46,115.7c0-.53-.17-.8-.52-.8-.18,0-.35.08-.52.28v1.2c.16.15.34.2.49.2.31,0,.56-.26.56-.87Z"/>
    <path class="cls-2" d="M98.6,115.99v-1.05h-.72v-.66l.75-.04.11-.91h.7v.91h1.2v.69h-1.2v1.04c0,.45.18.62.6.62.21,0,.39-.04.56-.11l.15.64c-.25.08-.55.16-.93.16-.91,0-1.23-.52-1.23-1.3Z"/>
    <path class="cls-2" d="M102.64,114.94h-1.15v-.69h1.99v2.98h-.84v-2.28ZM102.46,113.24c0-.32.23-.55.56-.55s.56.22.56.55-.24.54-.56.54-.56-.21-.56-.54Z"/>
    <path class="cls-2" d="M104.75,115.74c0-.99.7-1.56,1.45-1.56s1.45.57,1.45,1.56-.7,1.56-1.45,1.56-1.45-.57-1.45-1.56ZM106.79,115.74c0-.52-.2-.85-.59-.85s-.59.33-.59.85.2.85.59.85.59-.33.59-.85Z"/>
    <path class="cls-2" d="M108.34,114.25h.69l.06.4h.02c.25-.25.56-.47.98-.47.64,0,.93.46.93,1.21v1.84h-.84v-1.72c0-.4-.11-.57-.42-.57-.23,0-.38.11-.58.31v1.99h-.84v-2.98Z"/>
    <path class="cls-2" d="M115.15,116.72c1.04-.92,1.75-1.56,1.75-2.11,0-.37-.22-.57-.6-.57-.29,0-.53.19-.73.39l-.45-.48c.38-.4.74-.6,1.3-.6.77,0,1.29.48,1.29,1.21,0,.64-.63,1.33-1.34,1.97.21-.02.47-.04.66-.04h.86v.74h-2.74v-.51Z"/>
  </g>
  <path class="cls-2" d="M135.6,82.51h-.82s-1.06-2.88-1.06-2.88h.84s.31.93.31.93l.31.98h.03l.32-.98.32-.93h.84s-1.08,2.87-1.08,2.87Z"/>
</svg>