<?xml version="1.0" encoding="UTF-8"?>
<svg id="Layer_1" data-name="Layer 1" xmlns="http://www.w3.org/2000/svg" viewBox="0 0 195.63 146.03">
  <defs>
    <style>
      .cls-1, .cls-2 {
        stroke-miterlimit: 10;
        stroke-width: .9px;
      }

      .cls-1, .cls-3, .cls-4, .cls-5 {
        stroke: #231f20;
      }

      .cls-1, .cls-5 {
        fill: #fff;
      }

      .cls-2 {
        fill: #d8d8d8;
        stroke: #fff;
      }

      .cls-3 {
        fill: none;
      }

      .cls-3, .cls-4 {
        stroke-linecap: round;
      }

      .cls-3, .cls-4, .cls-5 {
        stroke-linejoin: round;
        stroke-width: 1.34px;
      }

      .cls-6 {
        fill: #231f20;
        stroke-width: 0px;
      }
    </style>
  </defs>
  <rect class="cls-2" x=".45" y=".45" width="194.73" height="145.13" rx="1.82" ry="1.82"/>
  <rect class="cls-1" x="62.43" y="84.7" width="26.6" height="7.34" rx=".72" ry=".72"/>
  <rect class="cls-1" x="147.08" y="84.7" width="26.6" height="7.34" rx=".72" ry=".72"/>
  <g>
    <path class="cls-6" d="M66.13,88.27c0-.91.45-1.4,1.1-1.4s1.1.49,1.1,1.4-.45,1.42-1.1,1.42-1.1-.49-1.1-1.42ZM67.69,88.27c0-.57-.18-.87-.46-.87s-.46.3-.46.87.18.89.46.89.46-.3.46-.89Z"/>
    <path class="cls-6" d="M68.75,86.92h.63l.57,1.35.23.6h.01c-.03-.29-.09-.67-.09-.99v-.96h.59v2.72h-.63l-.57-1.36-.23-.6h-.01c.03.3.08.67.08.99v.97h-.59v-2.72Z"/>
    <path class="cls-6" d="M75.18,86.67h.51l-1.38,3.64h-.51l1.38-3.64Z"/>
    <path class="cls-6" d="M78.66,88.27c0-.91.45-1.4,1.1-1.4s1.1.49,1.1,1.4-.45,1.42-1.1,1.42-1.1-.49-1.1-1.42ZM80.22,88.27c0-.57-.18-.87-.46-.87s-.46.3-.46.87.18.89.46.89.46-.3.46-.89Z"/>
    <path class="cls-6" d="M81.45,86.92h1.81v.52h-1.19v.63h1.02v.52h-1.02v1.06h-.62v-2.72Z"/>
    <path class="cls-6" d="M83.96,86.92h1.81v.52h-1.19v.63h1.02v.52h-1.02v1.06h-.62v-2.72Z"/>
  </g>
  <path class="cls-5" d="M62.66,63.49c0,5.27-2.37,9.99-6.1,13.15-5.38,5.16-5.19,16.03-5.19,16.03l-11.76-.03c-.12-8.78-5.56-16.03-5.56-16.03v-.02c-3.51-3.31-5.9-7.84-5.9-13.1,0-9.53,7.72-17.26,17.26-17.26s17.25,7.73,17.25,17.26Z"/>
  <line class="cls-3" x1="39.93" y1="95.29" x2="51.2" y2="95.29"/>
  <line class="cls-3" x1="102.65" y1="46.72" x2="109.64" y2="50.74"/>
  <line class="cls-3" x1="131.73" y1="32.04" x2="131.6" y2="40.1"/>
  <line class="cls-3" x1="149.28" y1="37" x2="143.92" y2="43.03"/>
  <line class="cls-3" x1="118.5" y1="42.26" x2="113.29" y2="36.11"/>
  <line class="cls-3" x1="158.27" y1="47.89" x2="151.28" y2="51.91"/>
  <line class="cls-3" x1="39.93" y1="97.85" x2="51.2" y2="97.85"/>
  <path class="cls-4" d="M39.99,100.4s4.03.98,3.98,2.29,4.09,1.04,3.82.05,3.42-2.34,3.42-2.34h-11.28"/>
  <g>
    <path class="cls-6" d="M150.78,88.27c0-.91.45-1.4,1.1-1.4s1.1.49,1.1,1.4-.45,1.42-1.1,1.42-1.1-.49-1.1-1.42ZM152.34,88.27c0-.57-.18-.87-.46-.87s-.46.3-.46.87.18.89.46.89.46-.3.46-.89Z"/>
    <path class="cls-6" d="M153.4,86.92h.63l.57,1.35.23.6h.01c-.03-.29-.08-.67-.08-.99v-.96h.59v2.72h-.63l-.57-1.36-.23-.6h-.01c.03.3.08.67.08.99v.97h-.59v-2.72Z"/>
    <path class="cls-6" d="M159.82,86.67h.51l-1.38,3.64h-.51l1.38-3.64Z"/>
    <path class="cls-6" d="M163.31,88.27c0-.91.45-1.4,1.1-1.4s1.1.49,1.1,1.4-.45,1.42-1.1,1.42-1.1-.49-1.1-1.42ZM164.87,88.27c0-.57-.18-.87-.46-.87s-.46.3-.46.87.18.89.46.89.46-.3.46-.89Z"/>
    <path class="cls-6" d="M166.1,86.92h1.81v.52h-1.2v.63h1.02v.52h-1.02v1.06h-.62v-2.72Z"/>
    <path class="cls-6" d="M168.6,86.92h1.81v.52h-1.2v.63h1.02v.52h-1.02v1.06h-.62v-2.72Z"/>
  </g>
  <path class="cls-5" d="M147.31,63.49c0,5.27-2.37,9.99-6.1,13.15-5.38,5.16-5.19,16.03-5.19,16.03l-11.76-.03c-.12-8.78-5.56-16.03-5.56-16.03v-.02c-3.51-3.31-5.9-7.84-5.9-13.1,0-9.53,7.72-17.26,17.26-17.26s17.25,7.73,17.25,17.26Z"/>
  <line class="cls-3" x1="124.57" y1="95.29" x2="135.85" y2="95.29"/>
  <line class="cls-3" x1="124.57" y1="97.85" x2="135.85" y2="97.85"/>
  <path class="cls-4" d="M124.63,100.4s4.03.98,3.98,2.29,4.09,1.04,3.82.05,3.42-2.34,3.42-2.34h-11.28"/>
  <polygon class="cls-1" points="161.07 90.66 161.94 97.92 163.54 95.69 166.26 95.51 161.07 90.66"/>
</svg>