<?xml version="1.0" encoding="UTF-8"?>
<svg id="Layer_1" data-name="Layer 1" xmlns="http://www.w3.org/2000/svg" viewBox="0 0 217.43 162.05">
  <defs>
    <style>
      .cls-1, .cls-2 {
        fill: none;
      }

      .cls-1, .cls-3 {
        stroke-width: 0px;
      }

      .cls-4, .cls-5, .cls-6, .cls-2 {
        stroke: #231f20;
      }

      .cls-4, .cls-5, .cls-2 {
        stroke-linejoin: round;
        stroke-width: 1.5px;
      }

      .cls-4, .cls-6 {
        fill: #fff;
      }

      .cls-5, .cls-2 {
        stroke-linecap: round;
      }

      .cls-6 {
        stroke-miterlimit: 10;
      }

      .cls-3 {
        fill: #231f20;
      }
    </style>
  </defs>
  <rect class="cls-6" x="69.21" y="94.07" width="29.7" height="8.19" rx=".8" ry=".8"/>
  <rect class="cls-6" x="163.73" y="94.07" width="29.7" height="8.19" rx=".8" ry=".8"/>
  <polygon class="cls-6" points="179.35 100.74 180.32 108.84 182.11 106.34 185.14 106.14 179.35 100.74"/>
  <rect class="cls-1" width="217.43" height="162.05" rx="2.04" ry="2.04"/>
  <g>
    <path class="cls-3" d="M73.34,98.06c0-1.02.5-1.56,1.22-1.56s1.22.55,1.22,1.56-.5,1.59-1.22,1.59-1.22-.55-1.22-1.59ZM75.08,98.06c0-.63-.2-.97-.52-.97s-.52.34-.52.97.2,1,.52,1,.52-.34.52-1Z"/>
    <path class="cls-3" d="M76.27,96.55h.71l.64,1.51.26.67h.02c-.03-.32-.09-.75-.09-1.11v-1.08h.66v3.04h-.71l-.64-1.52-.26-.67h-.02c.03.34.1.74.1,1.1v1.08h-.66v-3.04Z"/>
    <path class="cls-3" d="M83.44,96.28h.57l-1.54,4.06h-.57l1.54-4.06Z"/>
    <path class="cls-3" d="M87.33,98.06c0-1.02.5-1.56,1.22-1.56s1.22.55,1.22,1.56-.5,1.59-1.22,1.59-1.22-.55-1.22-1.59ZM89.08,98.06c0-.63-.2-.97-.52-.97s-.52.34-.52.97.2,1,.52,1,.52-.34.52-1Z"/>
    <path class="cls-3" d="M90.45,96.55h2.02v.58h-1.33v.71h1.14v.58h-1.14v1.18h-.69v-3.04Z"/>
    <path class="cls-3" d="M93.25,96.55h2.02v.58h-1.33v.71h1.14v.58h-1.14v1.18h-.69v-3.04Z"/>
  </g>
  <path class="cls-4" d="M69.46,70.39c0,5.89-2.65,11.15-6.81,14.68-6,5.76-5.8,17.9-5.8,17.9l-13.13-.03c-.13-9.8-6.2-17.9-6.2-17.9l-.02-.03c-3.91-3.7-6.58-8.75-6.58-14.62,0-10.64,8.62-19.27,19.27-19.27s19.26,8.64,19.26,19.27Z"/>
  <line class="cls-2" x1="44.08" y1="105.9" x2="56.67" y2="105.9"/>
  <line class="cls-2" x1="114.12" y1="51.67" x2="121.92" y2="56.15"/>
  <line class="cls-2" x1="146.58" y1="35.28" x2="146.44" y2="44.28"/>
  <line class="cls-2" x1="166.18" y1="40.82" x2="160.2" y2="47.55"/>
  <line class="cls-2" x1="131.82" y1="46.69" x2="126" y2="39.82"/>
  <line class="cls-2" x1="176.23" y1="52.98" x2="168.42" y2="57.46"/>
  <line class="cls-2" x1="44.08" y1="108.76" x2="56.67" y2="108.76"/>
  <path class="cls-5" d="M44.15,111.61s4.51,1.1,4.44,2.56,4.57,1.16,4.26.06,3.82-2.62,3.82-2.62h-12.59"/>
  <g>
    <path class="cls-3" d="M167.86,98.06c0-1.02.5-1.56,1.22-1.56s1.22.55,1.22,1.56-.5,1.59-1.22,1.59-1.22-.55-1.22-1.59ZM169.6,98.06c0-.63-.2-.97-.52-.97s-.52.34-.52.97.2,1,.52,1,.52-.34.52-1Z"/>
    <path class="cls-3" d="M170.79,96.55h.71l.64,1.51.26.67h.02c-.03-.32-.09-.75-.09-1.11v-1.08h.66v3.04h-.71l-.64-1.52-.26-.67h-.02c.03.34.1.74.1,1.1v1.08h-.66v-3.04Z"/>
    <path class="cls-3" d="M177.96,96.28h.57l-1.54,4.06h-.58l1.54-4.06Z"/>
    <path class="cls-3" d="M181.85,98.06c0-1.02.5-1.56,1.22-1.56s1.22.55,1.22,1.56-.5,1.59-1.22,1.59-1.22-.55-1.22-1.59ZM183.59,98.06c0-.63-.2-.97-.52-.97s-.52.34-.52.97.2,1,.52,1,.52-.34.52-1Z"/>
    <path class="cls-3" d="M184.96,96.55h2.02v.58h-1.33v.71h1.14v.58h-1.14v1.18h-.69v-3.04Z"/>
    <path class="cls-3" d="M187.76,96.55h2.02v.58h-1.33v.71h1.14v.58h-1.14v1.18h-.69v-3.04Z"/>
  </g>
  <path class="cls-4" d="M163.98,70.39c0,5.89-2.65,11.15-6.81,14.68-6,5.76-5.8,17.9-5.8,17.9l-13.13-.03c-.13-9.8-6.2-17.9-6.2-17.9l-.02-.03c-3.91-3.7-6.58-8.75-6.58-14.62,0-10.64,8.62-19.27,19.27-19.27s19.26,8.64,19.26,19.27Z"/>
  <line class="cls-2" x1="138.6" y1="105.9" x2="151.19" y2="105.9"/>
  <line class="cls-2" x1="138.6" y1="108.76" x2="151.19" y2="108.76"/>
  <path class="cls-5" d="M138.67,111.61s4.51,1.1,4.44,2.56,4.57,1.16,4.26.06,3.82-2.62,3.82-2.62h-12.59"/>
</svg>