<?xml version="1.0" encoding="UTF-8"?>
<svg id="Layer_1" data-name="Layer 1" xmlns="http://www.w3.org/2000/svg" xmlns:xlink="http://www.w3.org/1999/xlink" viewBox="0 0 518.05 386.71">
  <defs>
    <style>
      .cls-1 {
        fill: #d8d8d8;
        stroke-width: 2.37px;
      }

      .cls-1, .cls-2, .cls-3 {
        stroke: #fff;
        stroke-miterlimit: 10;
      }

      .cls-2 {
        fill: none;
        stroke-width: 1.9px;
      }

      .cls-3 {
        fill: url(#linear-gradient);
        stroke-width: 2.24px;
      }

      .cls-4 {
        fill: #fff;
        stroke-width: 0px;
      }
    </style>
    <linearGradient id="linear-gradient" x1="145.27" y1="202.44" x2="374.73" y2="202.44" gradientUnits="userSpaceOnUse">
      <stop offset="0" stop-color="#532c8b"/>
      <stop offset="1" stop-color="#253d98"/>
    </linearGradient>
  </defs>
  <rect class="cls-1" x="1.19" y="1.19" width="515.68" height="384.34" rx="1.25" ry="1.25"/>
  <rect class="cls-3" x="145.27" y="90.62" width="229.46" height="223.63" rx="9.92" ry="9.92"/>
  <path class="cls-4" d="M168.26,111.3h3.49v19.06h5.75v3.18h-9.25v-22.24Z"/>
  <path class="cls-4" d="M178.74,116.64c0-3.56,1.87-5.59,5.31-5.59s5.31,2.03,5.31,5.59v11.56c0,3.56-1.87,5.59-5.31,5.59s-5.31-2.03-5.31-5.59v-11.56ZM182.23,128.43c0,1.59.7,2.19,1.81,2.19s1.81-.6,1.81-2.19v-12.01c0-1.59-.7-2.19-1.81-2.19s-1.81.6-1.81,2.19v12.01Z"/>
  <path class="cls-4" d="M196.85,121.15h4.89v7.05c0,3.56-1.78,5.59-5.21,5.59s-5.21-2.03-5.21-5.59v-11.56c0-3.56,1.78-5.59,5.21-5.59s5.21,2.03,5.21,5.59v2.16h-3.3v-2.38c0-1.59-.7-2.19-1.81-2.19s-1.81.6-1.81,2.19v12.01c0,1.59.7,2.16,1.81,2.16s1.81-.57,1.81-2.16v-4.1h-1.59v-3.18Z"/>
  <path class="cls-4" d="M208.92,111.3h3.49v22.24h-3.49v-22.24Z"/>
  <path class="cls-4" d="M218.13,117.43h-.06v16.11h-3.15v-22.24h4.38l3.53,13.31h.06v-13.31h3.11v22.24h-3.59l-4.29-16.11Z"/>
  <rect class="cls-2" x="162.4" y="220.69" width="194.04" height="26.07" rx="3.17" ry="3.17"/>
  <rect class="cls-2" x="162.4" y="270.9" width="91.56" height="20.07" rx="1.91" ry="1.91"/>
  <rect class="cls-2" x="162.4" y="169.69" width="194.04" height="26.07" rx="3.17" ry="3.17"/>
  <path class="cls-4" d="M169.1,154.12v7.84c0,.73.32.99.83.99s.83-.26.83-.99v-7.84h1.51v7.74c0,1.63-.81,2.56-2.38,2.56s-2.38-.93-2.38-2.56v-7.74h1.6Z"/>
  <path class="cls-4" d="M175.5,154c1.55,0,2.35.93,2.35,2.56v.32h-1.51v-.42c0-.73-.29-1-.8-1s-.8.28-.8,1,.32,1.29,1.37,2.21c1.34,1.18,1.76,2.02,1.76,3.18,0,1.63-.81,2.56-2.38,2.56s-2.38-.93-2.38-2.56v-.62h1.51v.73c0,.73.32.99.83.99s.83-.26.83-.99-.32-1.29-1.37-2.21c-1.34-1.18-1.76-2.02-1.76-3.18,0-1.63.8-2.56,2.35-2.56Z"/>
  <path class="cls-4" d="M180.39,158.4h2.19v1.45h-2.19v2.98h2.76v1.45h-4.36v-10.17h4.36v1.45h-2.76v2.83Z"/>
  <path class="cls-4" d="M187.48,164.29c-.09-.26-.15-.42-.15-1.25v-1.6c0-.94-.32-1.29-1.05-1.29h-.55v4.14h-1.6v-10.17h2.41c1.66,0,2.37.77,2.37,2.34v.8c0,1.05-.33,1.71-1.05,2.05v.03c.8.33,1.06,1.09,1.06,2.15v1.57c0,.49.01.86.17,1.23h-1.63ZM185.73,155.57v3.12h.62c.6,0,.96-.26.96-1.07v-1c0-.73-.25-1.05-.81-1.05h-.77Z"/>
  <path class="cls-4" d="M191.43,156.92h-.03v7.36h-1.44v-10.17h2l1.61,6.09h.03v-6.09h1.42v10.17h-1.64l-1.96-7.36Z"/>
  <path class="cls-4" d="M201.35,164.29h-1.61l-.28-1.84h-1.96l-.28,1.84h-1.47l1.63-10.17h2.34l1.63,10.17ZM197.71,161.06h1.54l-.76-5.14h-.03l-.76,5.14Z"/>
  <path class="cls-4" d="M205.47,161.34h.03l1.08-7.22h2.22v10.17h-1.51v-7.29h-.03l-1.07,7.29h-1.51l-1.16-7.19h-.03v7.19h-1.39v-10.17h2.22l1.16,7.22Z"/>
  <path class="cls-4" d="M211.56,158.4h2.19v1.45h-2.19v2.98h2.76v1.45h-4.36v-10.17h4.36v1.45h-2.76v2.83Z"/>
  <path class="cls-4" d="M172.3,208.85v1.32c0,1.63-.78,2.51-2.38,2.51h-.76v3.82h-1.6v-10.17h2.35c1.6,0,2.38.89,2.38,2.51ZM169.17,207.79v3.44h.76c.51,0,.78-.23.78-.96v-1.52c0-.73-.28-.96-.78-.96h-.76Z"/>
  <path class="cls-4" d="M178.03,216.5h-1.61l-.28-1.84h-1.96l-.28,1.84h-1.47l1.63-10.17h2.34l1.63,10.17ZM174.38,213.28h1.54l-.76-5.14h-.03l-.76,5.14Z"/>
  <path class="cls-4" d="M180.92,206.22c1.55,0,2.35.93,2.35,2.56v.32h-1.51v-.42c0-.73-.29-1-.8-1s-.8.28-.8,1,.32,1.29,1.37,2.21c1.34,1.18,1.76,2.02,1.76,3.18,0,1.63-.81,2.56-2.38,2.56s-2.38-.93-2.38-2.56v-.62h1.51v.73c0,.73.32.99.83.99s.83-.26.83-.99-.32-1.29-1.37-2.21c-1.34-1.18-1.76-2.02-1.76-3.18,0-1.63.8-2.56,2.35-2.56Z"/>
  <path class="cls-4" d="M186.36,206.22c1.55,0,2.35.93,2.35,2.56v.32h-1.51v-.42c0-.73-.29-1-.8-1s-.8.28-.8,1,.32,1.29,1.37,2.21c1.34,1.18,1.76,2.02,1.76,3.18,0,1.63-.81,2.56-2.38,2.56s-2.38-.93-2.38-2.56v-.62h1.51v.73c0,.73.32.99.83.99s.83-.26.83-.99-.32-1.29-1.37-2.21c-1.34-1.18-1.76-2.02-1.76-3.18,0-1.63.8-2.56,2.35-2.56Z"/>
  <path class="cls-4" d="M193.2,211.08h-.03l-.57,5.42h-2.19l-1.13-10.17h1.55l.84,8.02h.03l.76-8.02h1.54l.78,8.08h.03l.81-8.08h1.39l-1.13,10.17h-2.12l-.57-5.42Z"/>
  <path class="cls-4" d="M197.69,208.77c0-1.63.86-2.56,2.43-2.56s2.43.93,2.43,2.56v5.29c0,1.63-.86,2.56-2.43,2.56s-2.43-.93-2.43-2.56v-5.29ZM199.29,214.16c0,.73.32,1,.83,1s.83-.28.83-1v-5.49c0-.73-.32-1-.83-1s-.83.28-.83,1v5.49Z"/>
  <path class="cls-4" d="M206.92,216.5c-.09-.26-.15-.42-.15-1.25v-1.6c0-.94-.32-1.29-1.05-1.29h-.55v4.14h-1.6v-10.17h2.41c1.66,0,2.37.77,2.37,2.34v.8c0,1.05-.33,1.71-1.05,2.05v.03c.8.33,1.06,1.09,1.06,2.15v1.57c0,.49.01.86.17,1.23h-1.63ZM205.17,207.79v3.12h.62c.6,0,.96-.26.96-1.08v-1c0-.73-.25-1.05-.81-1.05h-.77Z"/>
  <path class="cls-4" d="M209.42,206.33h2.53c1.6,0,2.38.89,2.38,2.51v5.14c0,1.63-.78,2.51-2.38,2.51h-2.53v-10.17ZM211.01,207.79v7.26h.9c.51,0,.81-.26.81-.99v-5.29c0-.73-.31-.99-.81-.99h-.9Z"/>
  <g>
    <path class="cls-4" d="M352.84,270.2h-83.88c-1.99,0-3.6,1.61-3.6,3.6v14.68c0,1.99,1.61,3.6,3.6,3.6h83.88c1.99,0,3.6-1.61,3.6-3.6v-14.68c0-1.99-1.61-3.6-3.6-3.6ZM301.84,286.58h-4.81v-11.56h1.82v9.91h2.99v1.65ZM308.01,283.8c0,1.85-.98,2.91-2.76,2.91s-2.76-1.06-2.76-2.91v-6.01c0-1.85.98-2.91,2.76-2.91s2.76,1.06,2.76,2.91v6.01ZM314.45,278.91h-1.72v-1.24c0-.83-.36-1.14-.94-1.14s-.94.32-.94,1.14v6.25c0,.83.36,1.12.94,1.12s.94-.29.94-1.12v-2.13h-.83v-1.66h2.54v3.67c0,1.85-.92,2.91-2.71,2.91s-2.71-1.06-2.71-2.91v-6.01c0-1.85.92-2.91,2.71-2.91s2.71,1.06,2.71,2.91v1.12ZM320.01,286.58h-1.82v-11.56h1.82v11.56ZM327.07,286.58h-1.87l-2.23-8.37h-.03v8.37h-1.63v-11.56h2.28l1.83,6.92h.03v-6.92h1.62v11.56Z"/>
    <path class="cls-4" d="M305.25,276.53c-.58,0-.94.32-.94,1.14v6.25c0,.83.36,1.14.94,1.14s.94-.31.94-1.14v-6.25c0-.83-.36-1.14-.94-1.14Z"/>
  </g>
  <path class="cls-4" d="M344.22,123.65c-1.69,0-3.13-.6-4.33-1.8-1.2-1.2-1.8-2.65-1.8-4.33s.6-3.13,1.8-4.33,2.65-1.8,4.33-1.8,3.13.6,4.33,1.8,1.8,2.65,1.8,4.33-.6,3.13-1.8,4.33c-1.2,1.2-2.65,1.8-4.33,1.8ZM331.94,135.92v-4.3c0-.87.22-1.67.67-2.4s1.04-1.29,1.78-1.67c1.59-.79,3.2-1.39,4.83-1.78s3.3-.59,4.99-.59,3.35.2,4.99.59,3.25.99,4.83,1.78c.74.38,1.34.94,1.78,1.67.45.73.67,1.53.67,2.4v4.3h-24.55ZM335.01,132.85h18.41v-1.23c0-.28-.07-.54-.21-.77s-.33-.41-.56-.54c-1.38-.69-2.77-1.21-4.18-1.55s-2.83-.52-4.26-.52-2.85.17-4.26.52-2.8.86-4.18,1.55c-.23.13-.42.31-.56.54s-.21.49-.21.77v1.23ZM344.22,120.58c.84,0,1.57-.3,2.17-.9s.9-1.32.9-2.17-.3-1.57-.9-2.17-1.32-.9-2.17-.9-1.57.3-2.17.9c-.6.6-.9,1.32-.9,2.17s.3,1.57.9,2.17c.6.6,1.32.9,2.17.9Z"/>
  <path class="cls-4" d="M194.21,282.17v1.36c0,1.64-.82,2.58-2.4,2.58s-2.4-.94-2.4-2.58v-5.33c0-1.64.82-2.58,2.4-2.58s2.4.94,2.4,2.58v1h-1.52v-1.1c0-.73-.32-1.01-.83-1.01s-.83.28-.83,1.01v5.54c0,.73.32,1,.83,1s.83-.26.83-1v-1.46h1.52Z"/>
  <path class="cls-4" d="M200.41,285.99h-1.63l-.28-1.86h-1.98l-.28,1.86h-1.48l1.64-10.25h2.36l1.64,10.25ZM196.74,282.74h1.55l-.76-5.19h-.03l-.76,5.19Z"/>
  <path class="cls-4" d="M202.63,278.56h-.03v7.43h-1.45v-10.25h2.02l1.63,6.14h.03v-6.14h1.44v10.25h-1.66l-1.98-7.43Z"/>
  <path class="cls-4" d="M212.09,282.17v1.36c0,1.64-.82,2.58-2.4,2.58s-2.4-.94-2.4-2.58v-5.33c0-1.64.82-2.58,2.4-2.58s2.4.94,2.4,2.58v1h-1.52v-1.1c0-.73-.32-1.01-.83-1.01s-.83.28-.83,1.01v5.54c0,.73.32,1,.83,1s.83-.26.83-1v-1.46h1.52Z"/>
  <path class="cls-4" d="M214.69,280.06h2.21v1.46h-2.21v3h2.78v1.46h-4.39v-10.25h4.39v1.46h-2.78v2.86Z"/>
  <path class="cls-4" d="M218.47,275.74h1.61v8.79h2.65v1.46h-4.26v-10.25Z"/>
  <path class="cls-4" d="M169.1,253.31h1.22l-.11.86h-1.22l-.3,2.49h-.95l.74-6.03h2.51l-.1.86h-1.56l-.22,1.82Z"/>
  <path class="cls-4" d="M171.2,252.08c.12-.96.69-1.52,1.62-1.52s1.37.55,1.25,1.52l-.38,3.14c-.12.96-.69,1.52-1.62,1.52s-1.37-.55-1.25-1.52l.38-3.14ZM171.75,255.28c-.05.43.12.6.42.6s.51-.16.56-.6l.4-3.26c.05-.43-.12-.59-.42-.59s-.51.16-.56.59l-.4,3.26Z"/>
  <path class="cls-4" d="M176.11,256.66c-.03-.16-.06-.25,0-.74l.12-.95c.07-.56-.1-.77-.53-.77h-.33l-.3,2.46h-.95l.74-6.03h1.43c.98,0,1.35.46,1.24,1.39l-.06.47c-.08.62-.32,1.02-.77,1.21v.02c.45.2.55.65.47,1.28l-.11.93c-.04.29-.05.51.01.73h-.96ZM175.71,251.49l-.23,1.85h.37c.35,0,.59-.16.65-.64l.07-.59c.05-.43-.07-.62-.41-.62h-.46Z"/>
  <path class="cls-4" d="M179.43,253.3h1.33l-.23,1.91c-.12.96-.67,1.52-1.6,1.52s-1.35-.55-1.23-1.52l.38-3.14c.12-.96.67-1.52,1.6-1.52s1.35.55,1.23,1.52l-.07.59h-.9l.08-.65c.05-.43-.12-.59-.42-.59s-.51.16-.56.59l-.4,3.26c-.05.43.12.59.42.59s.51-.15.56-.59l.14-1.11h-.43l.11-.86Z"/>
  <path class="cls-4" d="M181.44,252.08c.12-.96.69-1.52,1.62-1.52s1.37.55,1.25,1.52l-.38,3.14c-.12.96-.69,1.52-1.62,1.52s-1.37-.55-1.25-1.52l.38-3.14ZM182,255.28c-.05.43.12.6.42.6s.51-.16.56-.6l.4-3.26c.05-.43-.12-.59-.42-.59s-.51.16-.56.59l-.4,3.26Z"/>
  <path class="cls-4" d="M184.84,250.63h2.93l-.1.86h-.99l-.63,5.17h-.95l.63-5.17h-.99l.1-.86Z"/>
  <path class="cls-4" d="M189.91,254.66l-.71-4.03h.99l.38,2.75h.02l1.05-2.75h.91l-1.69,4.03-.24,2h-.95l.24-2Z"/>
  <path class="cls-4" d="M192.55,252.08c.12-.96.69-1.52,1.62-1.52s1.37.55,1.25,1.52l-.38,3.14c-.12.96-.69,1.52-1.62,1.52s-1.37-.55-1.25-1.52l.38-3.14ZM193.11,255.28c-.05.43.12.6.42.6s.51-.16.56-.6l.4-3.26c.05-.43-.12-.59-.42-.59s-.51.16-.56.59l-.4,3.26Z"/>
  <path class="cls-4" d="M197.13,250.63l-.57,4.65c-.05.43.12.59.42.59s.51-.16.56-.59l.57-4.65h.9l-.56,4.59c-.12.96-.67,1.52-1.6,1.52s-1.35-.55-1.23-1.52l.56-4.59h.95Z"/>
  <path class="cls-4" d="M200.9,256.66c-.03-.16-.06-.25,0-.74l.12-.95c.07-.56-.1-.77-.53-.77h-.33l-.3,2.46h-.95l.74-6.03h1.43c.98,0,1.35.46,1.24,1.39l-.06.47c-.08.62-.32,1.02-.77,1.21v.02c.45.2.55.65.47,1.28l-.11.93c-.04.29-.05.51.01.73h-.96ZM200.5,251.49l-.23,1.85h.37c.35,0,.59-.16.65-.64l.07-.59c.05-.43-.07-.62-.41-.62h-.46Z"/>
  <path class="cls-4" d="M207.08,252.12l-.1.79c-.12.96-.65,1.49-1.6,1.49h-.45l-.28,2.27h-.95l.74-6.03h1.4c.95,0,1.35.53,1.23,1.49ZM205.3,251.49l-.25,2.04h.45c.3,0,.48-.14.54-.57l.11-.91c.05-.43-.09-.57-.4-.57h-.45Z"/>
  <path class="cls-4" d="M209.93,256.66h-.96l-.03-1.09h-1.16l-.3,1.09h-.87l1.7-6.03h1.39l.23,6.03ZM208,254.75h.91l-.08-3.05h-.02l-.82,3.05Z"/>
  <path class="cls-4" d="M212.39,250.56c.92,0,1.33.55,1.21,1.52l-.02.19h-.9l.03-.25c.05-.43-.1-.59-.4-.59s-.49.16-.55.59c-.05.44.1.77.65,1.31.71.7.9,1.2.81,1.89-.12.96-.67,1.52-1.6,1.52s-1.35-.55-1.23-1.52l.05-.37h.9l-.05.43c-.05.43.12.59.42.59s.51-.15.56-.59c.05-.44-.1-.77-.65-1.31-.71-.7-.9-1.2-.81-1.89.12-.96.66-1.52,1.58-1.52Z"/>
  <path class="cls-4" d="M215.62,250.56c.92,0,1.33.55,1.21,1.52l-.02.19h-.9l.03-.25c.05-.43-.1-.59-.4-.59s-.49.16-.55.59c-.05.44.1.77.65,1.31.71.7.9,1.2.81,1.89-.12.96-.67,1.52-1.6,1.52s-1.35-.55-1.23-1.52l.05-.37h.9l-.05.43c-.05.43.12.59.42.59s.51-.15.56-.59c.05-.44-.1-.77-.65-1.31-.71-.7-.9-1.2-.81-1.89.12-.96.66-1.52,1.58-1.52Z"/>
  <path class="cls-4" d="M219.32,253.45h-.02l-.73,3.21h-1.3l.06-6.03h.92l-.08,4.76h.02l1.03-4.76h.91l-.12,4.79h.02l1.07-4.79h.83l-1.41,6.03h-1.26l.06-3.21Z"/>
  <path class="cls-4" d="M222.16,252.08c.12-.96.69-1.52,1.62-1.52s1.37.55,1.25,1.52l-.38,3.14c-.12.96-.69,1.52-1.62,1.52s-1.37-.55-1.25-1.52l.38-3.14ZM222.72,255.28c-.05.43.12.6.42.6s.51-.16.56-.6l.4-3.26c.05-.43-.12-.59-.42-.59s-.51.16-.56.59l-.4,3.26Z"/>
  <path class="cls-4" d="M227.07,256.66c-.03-.16-.06-.25,0-.74l.12-.95c.07-.56-.1-.77-.53-.77h-.33l-.3,2.46h-.95l.74-6.03h1.43c.98,0,1.35.46,1.24,1.39l-.06.47c-.08.62-.32,1.02-.77,1.21v.02c.45.2.55.65.47,1.28l-.11.93c-.04.29-.05.51.01.73h-.96ZM226.67,251.49l-.23,1.85h.37c.35,0,.59-.16.65-.64l.07-.59c.05-.43-.07-.62-.41-.62h-.46Z"/>
  <path class="cls-4" d="M229.3,250.63h1.5c.95,0,1.35.53,1.23,1.49l-.37,3.05c-.12.96-.65,1.49-1.6,1.49h-1.5l.74-6.03ZM230.14,251.49l-.53,4.31h.54c.3,0,.5-.16.55-.59l.38-3.14c.05-.43-.11-.59-.41-.59h-.54Z"/>
  <path class="cls-4" d="M232.93,255.33c-.02-.1-.03-.22,0-.37.06-.48.22-.84.66-1.36.5-.6.67-1,.74-1.58.05-.43-.1-.59-.4-.59s-.49.16-.55.59l-.08.66h-.9l.07-.6c.12-.96.66-1.52,1.58-1.52s1.33.55,1.21,1.52c-.08.65-.31,1.11-.85,1.73-.43.5-.58.79-.63,1.18-.01.11-.02.22,0,.34h-.85ZM233.75,255.75l-.11.91h-.91l.11-.91h.91Z"/>
</svg>