<?xml version="1.0" encoding="UTF-8"?>
<svg id="Layer_1" data-name="Layer 1" xmlns="http://www.w3.org/2000/svg" viewBox="0 0 217.43 162.05">
  <defs>
    <style>
      .cls-1, .cls-2 {
        fill: none;
      }

      .cls-1, .cls-3 {
        stroke-width: 0px;
      }

      .cls-4 {
        stroke-width: 1.14px;
      }

      .cls-4, .cls-5 {
        stroke-linejoin: round;
      }

      .cls-4, .cls-5, .cls-2, .cls-6, .cls-7 {
        stroke: #231f20;
      }

      .cls-4, .cls-5, .cls-6, .cls-8, .cls-7 {
        fill: #fff;
      }

      .cls-5 {
        stroke-width: 1.1px;
      }

      .cls-2, .cls-6 {
        stroke-linecap: round;
      }

      .cls-2, .cls-6, .cls-8, .cls-7 {
        stroke-miterlimit: 10;
      }

      .cls-6 {
        stroke-width: 1.03px;
      }

      .cls-8 {
        stroke: #808285;
      }

      .cls-3 {
        fill: #231f20;
      }
    </style>
  </defs>
  <rect class="cls-7" x="60.14" y="57.46" width="98.97" height="19.4" rx="2.38" ry="2.38"/>
  <rect class="cls-7" x="60.32" y="79.63" width="98.97" height="19.4" rx="2.38" ry="2.38"/>
  <rect class="cls-7" x="60.32" y="101.8" width="98.97" height="19.4" rx="2.38" ry="2.38"/>
  <rect class="cls-7" x="66.88" y="63.84" width="6.37" height="6.37" rx="1.19" ry="1.19"/>
  <rect class="cls-7" x="66.88" y="86.14" width="6.37" height="6.37" rx="1.19" ry="1.19"/>
  <rect class="cls-7" x="66.88" y="108.45" width="6.37" height="6.37" rx="1.19" ry="1.19"/>
  <rect class="cls-7" x="79.82" y="69.17" width="73.29" height="1.63" rx=".44" ry=".44"/>
  <rect class="cls-7" x="79.82" y="91.09" width="73.29" height="1.63" rx=".44" ry=".44"/>
  <rect class="cls-8" x="79.43" y="114.2" width="73.29" height="1.63" rx=".44" ry=".44"/>
  <rect class="cls-5" x="128.98" y="41.11" width="30.21" height="12.27" rx="2.7" ry="2.7"/>
  <rect class="cls-4" x="60.69" y="40.64" width="31.6" height="12.69" rx="2.81" ry="2.81"/>
  <line class="cls-6" x1="154.24" y1="44.37" x2="154.27" y2="49.14"/>
  <line class="cls-6" x1="156.5" y1="46.74" x2="152" y2="46.78"/>
  <rect class="cls-1" width="217.43" height="162.05" rx="11.55" ry="11.55"/>
  <g>
    <path class="cls-3" d="M66.35,45.34h-1.35v-.9h3.73v.9h-1.35v3.83h-1.02v-3.83Z"/>
    <path class="cls-3" d="M69.2,46.79c0-1.58.74-2.43,1.82-2.43s1.82.85,1.82,2.43-.74,2.47-1.82,2.47-1.82-.85-1.82-2.47ZM71.79,46.79c0-.98-.3-1.5-.77-1.5s-.77.52-.77,1.5.3,1.55.77,1.55.77-.53.77-1.55Z"/>
    <path class="cls-3" d="M73.58,46.4h3.19v.75h-3.19v-.75Z"/>
    <path class="cls-3" d="M77.75,44.45h1.25c1.31,0,2.17.72,2.17,2.34s-.86,2.38-2.11,2.38h-1.3v-4.72ZM78.94,48.31c.7,0,1.18-.39,1.18-1.52s-.48-1.48-1.18-1.48h-.17v3h.17Z"/>
    <path class="cls-3" d="M81.68,46.79c0-1.58.74-2.43,1.82-2.43s1.82.85,1.82,2.43-.74,2.47-1.82,2.47-1.82-.85-1.82-2.47ZM84.26,46.79c0-.98-.3-1.5-.77-1.5s-.77.52-.77,1.5.3,1.55.77,1.55.77-.53.77-1.55Z"/>
    <path class="cls-3" d="M86.85,46.06c0-.47.33-.85.81-.85s.81.38.81.85-.33.85-.81.85-.81-.37-.81-.85ZM86.85,48.41c0-.47.33-.85.81-.85s.81.38.81.85-.33.85-.81.85-.81-.37-.81-.85Z"/>
  </g>
  <g>
    <path class="cls-3" d="M135,44.35h1.22l1.41,5h-1.08l-.58-2.53c-.12-.5-.25-1.08-.36-1.61h-.03c-.11.53-.24,1.11-.35,1.61l-.59,2.53h-1.05l1.41-5ZM134.52,47.28h2.16v.88h-2.16v-.88Z"/>
    <path class="cls-3" d="M138.18,44.35h1.25c1.31,0,2.17.76,2.17,2.48s-.86,2.52-2.11,2.52h-1.3v-5ZM139.37,48.44c.7,0,1.18-.42,1.18-1.61s-.48-1.57-1.18-1.57h-.17v3.18h.17Z"/>
    <path class="cls-3" d="M142.34,44.35h1.25c1.31,0,2.17.76,2.17,2.48s-.86,2.52-2.11,2.52h-1.3v-5ZM143.53,48.44c.7,0,1.18-.42,1.18-1.61s-.48-1.57-1.18-1.57h-.17v3.18h.17Z"/>
  </g>
  <polyline class="cls-2" points="68.42 110.7 69.96 112.63 77.41 105.77"/>
</svg>