<?xml version="1.0" encoding="UTF-8"?>
<svg id="Layer_1" data-name="Layer 1" xmlns="http://www.w3.org/2000/svg" viewBox="0 0 195.63 146.03">
  <defs>
    <style>
      .cls-1, .cls-2, .cls-3, .cls-4, .cls-5, .cls-6 {
        stroke-width: .9px;
      }

      .cls-1, .cls-2, .cls-3, .cls-5, .cls-6 {
        stroke-miterlimit: 10;
      }

      .cls-1, .cls-2, .cls-4, .cls-5 {
        fill: #fff;
      }

      .cls-1, .cls-4, .cls-5, .cls-6 {
        stroke: #231f20;
      }

      .cls-2 {
        stroke: #a7a9ac;
      }

      .cls-3 {
        fill: #d8d8d8;
        stroke: #fff;
      }

      .cls-4 {
        stroke-linejoin: round;
      }

      .cls-5, .cls-6 {
        stroke-linecap: round;
      }

      .cls-6 {
        fill: none;
      }

      .cls-7 {
        fill: #231f20;
        stroke-width: 0px;
      }
    </style>
  </defs>
  <rect class="cls-3" x=".45" y=".45" width="194.73" height="145.13" rx="1.82" ry="1.82"/>
  <rect class="cls-1" x="54.27" y="47.43" width="88.63" height="17.37" rx="2.14" ry="2.14"/>
  <rect class="cls-1" x="54.43" y="67.28" width="88.63" height="17.37" rx="2.14" ry="2.14"/>
  <rect class="cls-1" x="54.43" y="87.14" width="88.63" height="17.37" rx="2.14" ry="2.14"/>
  <rect class="cls-1" x="60.3" y="53.14" width="5.71" height="5.71" rx="1.06" ry="1.06"/>
  <rect class="cls-1" x="60.3" y="73.11" width="5.71" height="5.71" rx="1.06" ry="1.06"/>
  <rect class="cls-1" x="60.3" y="93.09" width="5.71" height="5.71" rx="1.06" ry="1.06"/>
  <rect class="cls-1" x="71.9" y="57.91" width="65.64" height="1.46" rx=".4" ry=".4"/>
  <rect class="cls-1" x="71.9" y="77.55" width="65.64" height="1.46" rx=".4" ry=".4"/>
  <rect class="cls-2" x="71.54" y="98.24" width="65.64" height="1.46" rx=".4" ry=".4"/>
  <rect class="cls-4" x="115.93" y="32.79" width="27.06" height="10.99" rx="2.42" ry="2.42"/>
  <rect class="cls-4" x="54.76" y="32.36" width="28.3" height="11.37" rx="2.52" ry="2.52"/>
  <line class="cls-5" x1="138.54" y1="35.71" x2="138.57" y2="39.98"/>
  <line class="cls-5" x1="140.57" y1="37.83" x2="136.54" y2="37.86"/>
  <g>
    <path class="cls-7" d="M59.83,36.58h-1.21v-.8h3.34v.8h-1.21v3.42h-.92v-3.42Z"/>
    <path class="cls-7" d="M62.39,37.87c0-1.41.66-2.17,1.63-2.17s1.63.76,1.63,2.17-.66,2.21-1.63,2.21-1.63-.76-1.63-2.21ZM64.71,37.87c0-.88-.27-1.35-.69-1.35s-.69.47-.69,1.35.27,1.38.69,1.38.69-.47.69-1.38Z"/>
    <path class="cls-7" d="M66.31,37.53h2.86v.67h-2.86v-.67Z"/>
    <path class="cls-7" d="M70.04,35.78h1.12c1.17,0,1.95.64,1.95,2.09s-.77,2.13-1.89,2.13h-1.17v-4.23ZM71.11,39.23c.63,0,1.06-.35,1.06-1.36s-.43-1.32-1.06-1.32h-.15v2.69h.15Z"/>
    <path class="cls-7" d="M73.56,37.87c0-1.41.66-2.17,1.63-2.17s1.63.76,1.63,2.17-.66,2.21-1.63,2.21-1.63-.76-1.63-2.21ZM75.88,37.87c0-.88-.27-1.35-.69-1.35s-.69.47-.69,1.35.27,1.38.69,1.38.69-.47.69-1.38Z"/>
    <path class="cls-7" d="M78.19,37.22c0-.42.29-.76.72-.76s.72.34.72.76-.29.76-.72.76-.72-.33-.72-.76ZM78.19,39.32c0-.42.29-.76.72-.76s.72.34.72.76-.29.76-.72.76-.72-.33-.72-.76Z"/>
  </g>
  <g>
    <path class="cls-7" d="M121.31,35.69h1.1l1.26,4.47h-.97l-.52-2.27c-.1-.45-.23-.97-.32-1.44h-.03c-.1.47-.21,1-.31,1.44l-.53,2.27h-.94l1.26-4.47ZM120.89,38.31h1.94v.79h-1.94v-.79Z"/>
    <path class="cls-7" d="M124.16,35.69h1.12c1.17,0,1.95.68,1.95,2.22s-.77,2.26-1.89,2.26h-1.17v-4.47ZM125.23,39.35c.63,0,1.06-.37,1.06-1.44s-.43-1.4-1.06-1.4h-.15v2.84h.15Z"/>
    <path class="cls-7" d="M127.89,35.69h1.12c1.17,0,1.95.68,1.95,2.22s-.77,2.26-1.89,2.26h-1.17v-4.47ZM128.95,39.35c.63,0,1.06-.37,1.06-1.44s-.43-1.4-1.06-1.4h-.15v2.84h.15Z"/>
  </g>
  <polyline class="cls-6" points="61.69 95.11 63.06 96.84 69.74 90.7"/>
</svg>