<?xml version="1.0" encoding="UTF-8"?>
<svg id="Layer_1" data-name="Layer 1" xmlns="http://www.w3.org/2000/svg" viewBox="0 0 217.43 162.05">
  <defs>
    <style>
      .cls-1, .cls-2 {
        fill: none;
      }

      .cls-1, .cls-3, .cls-4 {
        stroke-width: 0px;
      }

      .cls-2 {
        stroke-linecap: round;
      }

      .cls-2, .cls-5, .cls-6 {
        stroke: #231f20;
      }

      .cls-2, .cls-6 {
        stroke-miterlimit: 10;
      }

      .cls-5 {
        stroke-linejoin: round;
        stroke-width: 1.09px;
      }

      .cls-5, .cls-6 {
        fill: #fff;
      }

      .cls-3 {
        fill: #231f20;
      }

      .cls-4 {
        fill: #21409a;
      }
    </style>
  </defs>
  <rect class="cls-1" width="217.43" height="162.05" rx="2.04" ry="2.04"/>
  <rect class="cls-5" x="139.81" y="112.38" width="36.15" height="12.27" rx="2.95" ry="2.95"/>
  <g>
    <path class="cls-3" d="M144.49,115.62h1.6c.96,0,1.74.37,1.74,1.56s-.79,1.64-1.74,1.64h-.58v1.8h-1.02v-5ZM146.01,117.93c.54,0,.83-.26.83-.75s-.29-.66-.83-.66h-.5v1.41h.5ZM146.61,117.8l1.44,2.82h-1.14l-1-2.1.71-.73Z"/>
    <path class="cls-3" d="M149.63,115.62h1.22l1.41,5h-1.08l-.58-2.53c-.12-.5-.25-1.08-.36-1.61h-.03c-.11.53-.24,1.11-.35,1.61l-.59,2.53h-1.05l1.41-5ZM149.16,118.55h2.16v.88h-2.16v-.88Z"/>
    <path class="cls-3" d="M152.84,119.68h1.05v-3.1h-1.05v-.95h3.13v.95h-1.05v3.1h1.05v.95h-3.13v-.95Z"/>
    <path class="cls-3" d="M156.94,115.62h1.05l.95,2.49.39,1.1h.02c-.05-.53-.14-1.23-.14-1.82v-1.77h.97v5h-1.05l-.95-2.49-.39-1.09h-.02c.05.55.14,1.22.14,1.81v1.77h-.97v-5Z"/>
  </g>
  <rect class="cls-6" x="165.13" y="115.47" width="6.37" height="6.37" rx="1.19" ry="1.19"/>
  <rect class="cls-5" x="38.22" y="113.05" width="36.15" height="12.27" rx="2.95" ry="2.95"/>
  <g>
    <path class="cls-3" d="M43.14,116.41h1.6c.96,0,1.74.37,1.74,1.56s-.79,1.64-1.74,1.64h-.58v1.8h-1.02v-5ZM44.66,118.71c.54,0,.82-.26.82-.75s-.29-.66-.82-.66h-.5v1.41h.5ZM45.27,118.59l1.44,2.82h-1.14l-1-2.1.71-.73Z"/>
    <path class="cls-3" d="M48.29,116.41h1.23l1.41,5h-1.08l-.58-2.53c-.11-.5-.25-1.08-.36-1.61h-.03c-.11.53-.24,1.11-.35,1.61l-.59,2.53h-1.05l1.41-5ZM47.81,119.34h2.16v.88h-2.16v-.88Z"/>
    <path class="cls-3" d="M51.49,120.46h1.05v-3.1h-1.05v-.95h3.13v.95h-1.05v3.1h1.05v.95h-3.13v-.95Z"/>
    <path class="cls-3" d="M55.6,116.41h1.05l.95,2.49.39,1.1h.02c-.05-.53-.14-1.23-.14-1.82v-1.77h.97v5h-1.05l-.95-2.49-.39-1.09h-.02c.05.55.14,1.22.14,1.81v1.77h-.97v-5Z"/>
  </g>
  <rect class="cls-6" x="63.4" y="116.22" width="6.37" height="6.37" rx="1.19" ry="1.19"/>
  <rect class="cls-5" x="37.96" y="97.34" width="36.15" height="12.27" rx="2.95" ry="2.95"/>
  <g>
    <path class="cls-3" d="M42.66,103.18c0-1.67.74-2.57,1.82-2.57s1.82.9,1.82,2.57-.74,2.62-1.82,2.62-1.82-.91-1.82-2.62ZM45.25,103.18c0-1.04-.3-1.59-.77-1.59s-.77.55-.77,1.59.3,1.64.77,1.64.77-.56.77-1.64Z"/>
    <path class="cls-3" d="M47.08,100.7h1.6c.98,0,1.77.39,1.77,1.61s-.81,1.7-1.77,1.7h-.58v1.7h-1.02v-5ZM48.62,103.1c.56,0,.83-.28.83-.8s-.29-.71-.83-.71h-.52v1.51h.52Z"/>
    <path class="cls-3" d="M51.36,100.7h2.99v.95h-1.97v1h1.67v.95h-1.67v1.15h2.04v.95h-3.06v-5Z"/>
    <path class="cls-3" d="M55.33,100.7h1.05l.95,2.49.39,1.1h.02c-.05-.53-.14-1.23-.14-1.82v-1.77h.97v5h-1.05l-.95-2.49-.39-1.09h-.02c.05.55.14,1.22.14,1.81v1.77h-.97v-5Z"/>
  </g>
  <rect class="cls-6" x="63.14" y="100.51" width="6.37" height="6.37" rx="1.19" ry="1.19"/>
  <path class="cls-3" d="M195.56,55.08c-.63-.34-8.26-4.37-12.51.03,0,0-7.52-4.67-12.59,0,0,0-7.5-5.14-12.55-.03v.03s-.03-.01-.04-.03c-5.06-5.12-12.55.03-12.55.03-5.07-4.67-12.61,0-12.61,0-4.25-4.4-11.87-.36-12.49-.03,16.82-20.04,37.66-18.42,37.66-18.42,0,0,22.4-2.5,37.68,18.42Z"/>
  <polygon class="cls-3" points="157.91 55.08 157.91 55.12 157.9 55.11 157.91 55.08"/>
  <path class="cls-3" d="M157.9,55.11s-.01,0-.03.01v-.04l.03.03Z"/>
  <path class="cls-3" d="M157.68,36.7l-.04-3.61s-.02-2.31-2.73-.06c0,0-.61.02-.44-.44s1.78-1.36,2.62-1.23c.65.1,1.21.23,1.25,1.76.03,1.27.04,3.6.04,3.6h-.7Z"/>
  <path class="cls-3" d="M55.02,37.02l-.04-3.61s-.02-2.31-2.73-.06c0,0-.61.02-.44-.44s1.78-1.36,2.62-1.23c.65.1,1.21.23,1.25,1.76.03,1.27.04,3.6.04,3.6h-.7Z"/>
  <path class="cls-3" d="M157.44,53.72l-.09,30.02s.1,2.86-2.61,1.47c0,0-1.25.35-.49.83s3.68,2.36,4.52-2.36l-.05-29.66"/>
  <path class="cls-3" d="M54.3,47.27l.08,35.74s-.07,2.99-2.78,1.6c0,0-1.25.35-.49.83s3.68,2.36,4.52-2.36l-.05-35.5"/>
  <rect class="cls-5" x="139.03" y="96.55" width="36.15" height="12.27" rx="2.95" ry="2.95"/>
  <g>
    <path class="cls-3" d="M143.74,102.39c0-1.67.74-2.57,1.82-2.57s1.82.9,1.82,2.57-.74,2.62-1.82,2.62-1.82-.9-1.82-2.62ZM146.32,102.39c0-1.04-.3-1.59-.77-1.59s-.77.55-.77,1.59.3,1.64.77,1.64.77-.56.77-1.64Z"/>
    <path class="cls-3" d="M148.15,99.91h1.6c.98,0,1.77.39,1.77,1.61s-.81,1.7-1.77,1.7h-.58v1.7h-1.02v-5ZM149.69,102.32c.56,0,.83-.28.83-.8s-.29-.71-.83-.71h-.52v1.51h.52Z"/>
    <path class="cls-3" d="M152.43,99.91h2.99v.95h-1.97v1h1.67v.95h-1.67v1.15h2.04v.95h-3.06v-5Z"/>
    <path class="cls-3" d="M156.41,99.91h1.05l.95,2.49.39,1.1h.02c-.05-.53-.14-1.23-.14-1.82v-1.77h.97v5h-1.05l-.95-2.49-.39-1.09h-.02c.05.55.14,1.22.14,1.81v1.77h-.97v-5Z"/>
  </g>
  <rect class="cls-6" x="164.21" y="99.73" width="6.37" height="6.37" rx="1.19" ry="1.19"/>
  <polyline class="cls-2" points="166.16 102.01 167.69 103.94 175.15 97.08"/>
  <polyline class="cls-2" points="166.68 117.72 168.21 119.65 175.67 112.79"/>
  <path class="cls-3" d="M54.95,36.03l-9.11,41.13s5.17-4.83,8.88-.02c0,0,5.9-4.95,9,0l-8.07-41.1h-.7Z"/>
  <path class="cls-4" d="M119.07,46.62c-1.53-1.38,2.23-2.61,2.23-2.61,0,0-.63,3.92-2.23,2.61Z"/>
  <path class="cls-4" d="M125.11,35.53c1.97-.61-.93-3.3-.93-3.3,0,0-1.07,3.83.93,3.3Z"/>
  <path class="cls-4" d="M129.04,29.69c1.97-.61-.93-3.3-.93-3.3,0,0-1.07,3.83.93,3.3Z"/>
  <path class="cls-4" d="M136.54,34.41c1.97-.61-.93-3.3-.93-3.3,0,0-1.07,3.83.93,3.3Z"/>
  <path class="cls-4" d="M119.81,40.48c1.97-.61-.93-3.3-.93-3.3,0,0-1.07,3.83.93,3.3Z"/>
  <path class="cls-4" d="M132.87,26.14c-2,.51-.93-3.3-.93-3.3,0,0,2.91,2.71.93,3.3Z"/>
  <path class="cls-4" d="M135.27,19.97c-2,.51-.93-3.3-.93-3.3,0,0,2.91,2.71.93,3.3Z"/>
  <path class="cls-4" d="M128.87,17.04c-2,.51-.93-3.3-.93-3.3,0,0,2.91,2.71.93,3.3Z"/>
  <path class="cls-4" d="M113.35,33.85c-2,.51-.93-3.3-.93-3.3,0,0,2.91,2.71.93,3.3Z"/>
  <path class="cls-4" d="M124.93,24.99c-2,.51-.93-3.3-.93-3.3,0,0,2.91,2.71.93,3.3Z"/>
  <path class="cls-4" d="M119.55,30.32c-2,.51-.93-3.3-.93-3.3,0,0,2.91,2.71.93,3.3Z"/>
  <path class="cls-4" d="M139.58,28.38c-2,.51-.93-3.3-.93-3.3,0,0,2.91,2.71.93,3.3Z"/>
  <path class="cls-4" d="M145.79,24.85c-2,.51-.93-3.3-.93-3.3,0,0,2.91,2.71.93,3.3Z"/>
  <path class="cls-4" d="M161.89,31.66c1.97-.61-.93-3.3-.93-3.3,0,0-1.07,3.83.93,3.3Z"/>
  <path class="cls-4" d="M170.3,36.74c1.03-1.79-2.93-1.78-2.93-1.78,0,0,1.83,3.53,2.93,1.78Z"/>
  <path class="cls-4" d="M165.82,25.82c1.97-.61-.93-3.3-.93-3.3,0,0-1.07,3.83.93,3.3Z"/>
  <path class="cls-4" d="M173.33,30.55c1.97-.61-.93-3.3-.93-3.3,0,0-1.07,3.83.93,3.3Z"/>
  <path class="cls-4" d="M178.83,36.18c-.35-2.04-3.4.48-3.4.48,0,0,3.65,1.56,3.4-.48Z"/>
  <path class="cls-4" d="M169.65,22.28c-2,.51-.93-3.3-.93-3.3,0,0,2.91,2.71.93,3.3Z"/>
  <path class="cls-4" d="M172.05,16.11c-2,.51-.93-3.3-.93-3.3,0,0,2.91,2.71.93,3.3Z"/>
  <path class="cls-4" d="M165.65,13.18c-2,.51-.93-3.3-.93-3.3,0,0,2.91,2.71.93,3.3Z"/>
  <path class="cls-4" d="M150.13,29.99c-2,.51-.93-3.3-.93-3.3,0,0,2.91,2.71.93,3.3Z"/>
  <path class="cls-4" d="M161.71,21.13c-2,.51-.93-3.3-.93-3.3,0,0,2.91,2.71.93,3.3Z"/>
  <path class="cls-4" d="M156.33,26.46c-2,.51-.93-3.3-.93-3.3,0,0,2.91,2.71.93,3.3Z"/>
  <path class="cls-4" d="M151.45,19.33c1.97-.61-.93-3.3-.93-3.3,0,0-1.07,3.83.93,3.3Z"/>
  <path class="cls-4" d="M155.28,15.79c-2,.51-.93-3.3-.93-3.3,0,0,2.91,2.71.93,3.3Z"/>
  <path class="cls-4" d="M147.34,14.64c-2,.51-.93-3.3-.93-3.3,0,0,2.91,2.71.93,3.3Z"/>
  <path class="cls-4" d="M141.96,19.97c-2,.51-.93-3.3-.93-3.3,0,0,2.91,2.71.93,3.3Z"/>
  <path class="cls-4" d="M176.37,24.52c-2,.51-.93-3.3-.93-3.3,0,0,2.91,2.71.93,3.3Z"/>
  <path class="cls-4" d="M182.57,20.99c-2,.51-.93-3.3-.93-3.3,0,0,2.91,2.71.93,3.3Z"/>
  <path class="cls-4" d="M188.01,27.03c1.97-.61-.93-3.3-.93-3.3,0,0-1.07,3.83.93,3.3Z"/>
  <path class="cls-4" d="M191.94,21.19c1.97-.61-.93-3.3-.93-3.3,0,0-1.07,3.83.93,3.3Z"/>
  <path class="cls-4" d="M199.45,25.91c1.97-.61-.93-3.3-.93-3.3,0,0-1.07,3.83.93,3.3Z"/>
  <path class="cls-4" d="M182.19,31.32c-2,.51-.93-3.3-.93-3.3,0,0,2.91,2.71.93,3.3Z"/>
  <path class="cls-4" d="M195.68,42.68c1.97-.61-.93-3.3-.93-3.3,0,0-1.07,3.83.93,3.3Z"/>
  <path class="cls-4" d="M198.72,36.65c-2,.51-.93-3.3-.93-3.3,0,0,2.91,2.71.93,3.3Z"/>
  <path class="cls-4" d="M187.15,36.54c-2,.51-.93-3.3-.93-3.3,0,0,2.91,2.71.93,3.3Z"/>
  <path class="cls-4" d="M204.53,43.45c-2,.51-.93-3.3-.93-3.3,0,0,2.91,2.71.93,3.3Z"/>
  <path class="cls-4" d="M188.2,42.34c-1.37,1.54-2.62-2.21-2.62-2.21,0,0,3.93.61,2.62,2.21Z"/>
  <path class="cls-4" d="M193.83,33.82c1.97-.61-.93-3.3-.93-3.3,0,0-1.07,3.83.93,3.3Z"/>
  <path class="cls-4" d="M187.83,16.49c-2,.51-.93-3.3-.93-3.3,0,0,2.91,2.71.93,3.3Z"/>
  <path class="cls-4" d="M160.48,13.71c-2,.51-.93-3.3-.93-3.3,0,0,2.91,2.71.93,3.3Z"/>
  <path class="cls-4" d="M181.33,13.57c-2,.51-.93-3.3-.93-3.3,0,0,2.91,2.71.93,3.3Z"/>
  <path class="cls-4" d="M141.48,35.19c1.09-1.75,2.96,1.73,2.96,1.73,0,0-3.97.07-2.96-1.73Z"/>
  <path class="cls-4" d="M127.86,42.48c-.31-2.04,3.38-.6,3.38-.6,0,0-2.98,2.63-3.38.6Z"/>
</svg>