<?xml version="1.0" encoding="UTF-8"?>
<svg id="Layer_1" data-name="Layer 1" xmlns="http://www.w3.org/2000/svg" viewBox="0 0 195.63 146.03">
  <defs>
    <style>
      .cls-1, .cls-2, .cls-3 {
        stroke-miterlimit: 10;
        stroke-width: .9px;
      }

      .cls-1, .cls-4 {
        fill: #fff;
      }

      .cls-1, .cls-4, .cls-3 {
        stroke: #231f20;
      }

      .cls-2 {
        fill: #d8d8d8;
        stroke: #fff;
      }

      .cls-4 {
        stroke-linejoin: round;
        stroke-width: .98px;
      }

      .cls-3 {
        fill: none;
        stroke-linecap: round;
      }

      .cls-5 {
        fill: #231f20;
      }

      .cls-5, .cls-6 {
        stroke-width: 0px;
      }

      .cls-6 {
        fill: #21409a;
      }
    </style>
  </defs>
  <rect class="cls-2" x=".45" y=".45" width="194.73" height="145.13" rx="1.82" ry="1.82"/>
  <rect class="cls-4" x="28.71" y="110.24" width="32.38" height="10.99" rx="1.48" ry="1.48"/>
  <rect class="cls-4" x="119.55" y="110.06" width="32.38" height="10.99" rx="1.48" ry="1.48"/>
  <rect class="cls-4" x="118.68" y="95.86" width="32.38" height="10.99" rx="1.48" ry="1.48"/>
  <g>
    <path class="cls-5" d="M123.76,112.59h1.44c.86,0,1.56.33,1.56,1.39s-.71,1.47-1.56,1.47h-.52v1.61h-.92v-4.47ZM125.13,114.65c.48,0,.74-.23.74-.67s-.26-.59-.74-.59h-.45v1.26h.45ZM125.67,114.54l1.29,2.53h-1.02l-.9-1.88.63-.65Z"/>
    <path class="cls-5" d="M128.37,112.59h1.1l1.26,4.47h-.97l-.52-2.27c-.1-.45-.23-.97-.32-1.44h-.02c-.1.47-.21,1-.31,1.44l-.53,2.27h-.94l1.26-4.47ZM127.95,115.21h1.94v.79h-1.94v-.79Z"/>
    <path class="cls-5" d="M131.24,116.22h.95v-2.78h-.95v-.85h2.81v.85h-.95v2.78h.95v.85h-2.81v-.85Z"/>
    <path class="cls-5" d="M134.92,112.59h.94l.85,2.22.35.98h.02c-.04-.47-.13-1.1-.13-1.63v-1.58h.87v4.47h-.94l-.85-2.23-.35-.98h-.02c.04.5.13,1.09.13,1.62v1.59h-.87v-4.47Z"/>
  </g>
  <rect class="cls-1" x="142.25" y="112.45" width="5.71" height="5.71" rx="1.06" ry="1.06"/>
  <g>
    <path class="cls-5" d="M33,113.3h1.44c.86,0,1.56.33,1.56,1.39s-.71,1.47-1.56,1.47h-.52v1.61h-.92v-4.47ZM34.37,115.36c.48,0,.74-.23.74-.67s-.26-.59-.74-.59h-.45v1.26h.45ZM34.91,115.24l1.29,2.53h-1.02l-.9-1.88.63-.65Z"/>
    <path class="cls-5" d="M37.61,113.3h1.1l1.26,4.47h-.97l-.52-2.27c-.1-.45-.23-.97-.32-1.44h-.02c-.1.47-.21,1-.31,1.44l-.53,2.27h-.94l1.26-4.47ZM37.18,115.92h1.94v.79h-1.94v-.79Z"/>
    <path class="cls-5" d="M40.48,116.92h.95v-2.78h-.95v-.85h2.81v.85h-.95v2.78h.95v.85h-2.81v-.85Z"/>
    <path class="cls-5" d="M44.16,113.3h.94l.85,2.22.35.98h.02c-.04-.47-.13-1.1-.13-1.63v-1.58h.87v4.47h-.94l-.85-2.23-.35-.98h-.02c.04.5.13,1.09.13,1.62v1.59h-.87v-4.47Z"/>
  </g>
  <rect class="cls-1" x="51.14" y="113.13" width="5.71" height="5.71" rx="1.06" ry="1.06"/>
  <rect class="cls-4" x="28.36" y="96.21" width="32.38" height="10.99" rx="1.48" ry="1.48"/>
  <g>
    <path class="cls-5" d="M32.57,101.44c0-1.5.66-2.3,1.63-2.3s1.63.8,1.63,2.3-.66,2.34-1.63,2.34-1.63-.81-1.63-2.34ZM34.89,101.44c0-.93-.27-1.42-.69-1.42s-.69.5-.69,1.42.27,1.47.69,1.47.69-.5.69-1.47Z"/>
    <path class="cls-5" d="M36.52,99.23h1.44c.88,0,1.58.35,1.58,1.44s-.73,1.52-1.58,1.52h-.52v1.52h-.92v-4.47ZM37.91,101.38c.5,0,.74-.25.74-.71s-.26-.64-.74-.64h-.47v1.35h.47Z"/>
    <path class="cls-5" d="M40.36,99.23h2.68v.85h-1.77v.9h1.5v.85h-1.5v1.03h1.83v.85h-2.75v-4.47Z"/>
    <path class="cls-5" d="M43.92,99.23h.94l.85,2.22.35.98h.02c-.04-.47-.13-1.1-.13-1.63v-1.58h.87v4.47h-.94l-.85-2.23-.35-.98h-.02c.04.5.13,1.09.13,1.62v1.59h-.87v-4.47Z"/>
  </g>
  <rect class="cls-1" x="50.91" y="99.05" width="5.71" height="5.71" rx="1.06" ry="1.06"/>
  <path class="cls-5" d="M169.51,58.36c-.56-.3-7.4-3.92-11.2.03,0,0-6.73-4.18-11.28,0,0,0-6.72-4.61-11.24-.03v.03s-.03-.01-.04-.03c-4.53-4.58-11.24.03-11.24.03-4.54-4.18-11.29,0-11.29,0-3.8-3.94-10.63-.33-11.19-.03,15.06-17.95,33.73-16.5,33.73-16.5,0,0,20.06-2.24,33.74,16.5Z"/>
  <polygon class="cls-5" points="135.79 58.36 135.79 58.4 135.78 58.39 135.79 58.36"/>
  <path class="cls-5" d="M135.78,58.39s-.01,0-.03.01v-.04l.03.03Z"/>
  <path class="cls-5" d="M135.58,41.9l-.03-3.24s-.02-2.06-2.44-.06c0,0-.55.02-.4-.4s1.59-1.22,2.35-1.1c.58.09,1.08.21,1.12,1.57.03,1.14.04,3.22.04,3.22h-.63Z"/>
  <path class="cls-5" d="M43.64,42.19l-.03-3.24s-.02-2.06-2.44-.06c0,0-.55.02-.4-.4s1.59-1.22,2.35-1.1c.58.09,1.08.21,1.12,1.57.03,1.14.04,3.22.04,3.22h-.63Z"/>
  <path class="cls-5" d="M135.36,57.14l-.08,26.88s.09,2.57-2.34,1.32c0,0-1.12.31-.44.75s3.3,2.12,4.04-2.12l-.04-26.56"/>
  <path class="cls-5" d="M43,51.38l.07,32s-.06,2.68-2.49,1.43c0,0-1.12.31-.44.75s3.3,2.12,4.04-2.12l-.04-31.8"/>
  <g>
    <path class="cls-5" d="M123.09,100.74c0-1.5.66-2.3,1.63-2.3s1.63.8,1.63,2.3-.66,2.34-1.63,2.34-1.63-.81-1.63-2.34ZM125.41,100.74c0-.93-.27-1.42-.69-1.42s-.69.5-.69,1.42.27,1.47.69,1.47.69-.5.69-1.47Z"/>
    <path class="cls-5" d="M127.05,98.52h1.44c.88,0,1.58.35,1.58,1.44s-.73,1.52-1.58,1.52h-.52v1.52h-.92v-4.47ZM128.43,100.67c.5,0,.74-.25.74-.71s-.26-.64-.74-.64h-.47v1.35h.47Z"/>
    <path class="cls-5" d="M130.88,98.52h2.68v.85h-1.77v.9h1.5v.85h-1.5v1.03h1.83v.85h-2.75v-4.47Z"/>
    <path class="cls-5" d="M134.44,98.52h.94l.85,2.22.35.98h.02c-.04-.47-.13-1.1-.13-1.63v-1.58h.87v4.47h-.94l-.85-2.23-.35-.98h-.02c.04.5.13,1.09.13,1.62v1.59h-.87v-4.47Z"/>
  </g>
  <rect class="cls-1" x="141.43" y="98.35" width="5.71" height="5.71" rx="1.06" ry="1.06"/>
  <polyline class="cls-3" points="143.17 100.4 144.54 102.12 151.22 95.98"/>
  <polyline class="cls-3" points="143.64 114.47 145.01 116.2 151.69 110.05"/>
  <path class="cls-5" d="M43.58,41.3l-8.16,36.84s4.63-4.32,7.96-.02c0,0,5.28-4.43,8.06,0l-7.23-36.81h-.63Z"/>
  <path class="cls-6" d="M101,50.79c-1.37-1.24,1.99-2.34,1.99-2.34,0,0-.57,3.51-1.99,2.34Z"/>
  <path class="cls-6" d="M106.41,40.85c1.77-.55-.83-2.96-.83-2.96,0,0-.95,3.43.83,2.96Z"/>
  <path class="cls-6" d="M109.93,35.63c1.77-.55-.83-2.96-.83-2.96,0,0-.95,3.43.83,2.96Z"/>
  <path class="cls-6" d="M116.65,39.86c1.77-.55-.83-2.96-.83-2.96,0,0-.95,3.43.83,2.96Z"/>
  <path class="cls-6" d="M101.66,45.29c1.77-.55-.83-2.96-.83-2.96,0,0-.95,3.43.83,2.96Z"/>
  <path class="cls-6" d="M113.36,32.45c-1.79.45-.83-2.96-.83-2.96,0,0,2.6,2.42.83,2.96Z"/>
  <path class="cls-6" d="M115.51,26.92c-1.79.45-.83-2.96-.83-2.96,0,0,2.6,2.42.83,2.96Z"/>
  <path class="cls-6" d="M109.77,24.3c-1.79.45-.83-2.96-.83-2.96,0,0,2.6,2.42.83,2.96Z"/>
  <path class="cls-6" d="M95.88,39.36c-1.79.45-.83-2.96-.83-2.96,0,0,2.6,2.42.83,2.96Z"/>
  <path class="cls-6" d="M106.25,31.42c-1.79.45-.83-2.96-.83-2.96,0,0,2.6,2.42.83,2.96Z"/>
  <path class="cls-6" d="M101.43,36.19c-1.79.45-.83-2.96-.83-2.96,0,0,2.6,2.42.83,2.96Z"/>
  <path class="cls-6" d="M119.37,34.46c-1.79.45-.83-2.96-.83-2.96,0,0,2.6,2.42.83,2.96Z"/>
  <path class="cls-6" d="M124.93,31.29c-1.79.45-.83-2.96-.83-2.96,0,0,2.6,2.42.83,2.96Z"/>
  <path class="cls-6" d="M139.35,37.39c1.77-.55-.83-2.96-.83-2.96,0,0-.95,3.43.83,2.96Z"/>
  <path class="cls-6" d="M146.88,41.94c.92-1.6-2.62-1.6-2.62-1.6,0,0,1.64,3.16,2.62,1.6Z"/>
  <path class="cls-6" d="M142.87,32.17c1.77-.55-.83-2.96-.83-2.96,0,0-.95,3.43.83,2.96Z"/>
  <path class="cls-6" d="M149.59,36.4c1.77-.55-.83-2.96-.83-2.96,0,0-.95,3.43.83,2.96Z"/>
  <path class="cls-6" d="M154.52,41.44c-.31-1.82-3.04.43-3.04.43,0,0,3.27,1.4,3.04-.43Z"/>
  <path class="cls-6" d="M146.3,28.99c-1.79.45-.83-2.96-.83-2.96,0,0,2.6,2.42.83,2.96Z"/>
  <path class="cls-6" d="M148.45,23.46c-1.79.45-.83-2.96-.83-2.96,0,0,2.6,2.42.83,2.96Z"/>
  <path class="cls-6" d="M142.72,20.84c-1.79.45-.83-2.96-.83-2.96,0,0,2.6,2.42.83,2.96Z"/>
  <path class="cls-6" d="M128.82,35.9c-1.79.45-.83-2.96-.83-2.96,0,0,2.6,2.42.83,2.96Z"/>
  <path class="cls-6" d="M139.19,27.96c-1.79.45-.83-2.96-.83-2.96,0,0,2.6,2.42.83,2.96Z"/>
  <path class="cls-6" d="M134.37,32.73c-1.79.45-.83-2.96-.83-2.96,0,0,2.6,2.42.83,2.96Z"/>
  <path class="cls-6" d="M130,26.35c1.77-.55-.83-2.96-.83-2.96,0,0-.95,3.43.83,2.96Z"/>
  <path class="cls-6" d="M133.43,23.17c-1.79.45-.83-2.96-.83-2.96,0,0,2.6,2.42.83,2.96Z"/>
  <path class="cls-6" d="M126.32,22.15c-1.79.45-.83-2.96-.83-2.96,0,0,2.6,2.42.83,2.96Z"/>
  <path class="cls-6" d="M121.5,26.92c-1.79.45-.83-2.96-.83-2.96,0,0,2.6,2.42.83,2.96Z"/>
  <path class="cls-6" d="M152.32,31c-1.79.45-.83-2.96-.83-2.96,0,0,2.6,2.42.83,2.96Z"/>
  <path class="cls-6" d="M157.87,27.83c-1.79.45-.83-2.96-.83-2.96,0,0,2.6,2.42.83,2.96Z"/>
  <path class="cls-6" d="M162.74,33.24c1.77-.55-.83-2.96-.83-2.96,0,0-.95,3.43.83,2.96Z"/>
  <path class="cls-6" d="M166.26,28.01c1.77-.55-.83-2.96-.83-2.96,0,0-.95,3.43.83,2.96Z"/>
  <path class="cls-6" d="M172.98,32.24c1.77-.55-.83-2.96-.83-2.96,0,0-.95,3.43.83,2.96Z"/>
  <path class="cls-6" d="M157.53,37.09c-1.79.45-.83-2.96-.83-2.96,0,0,2.6,2.42.83,2.96Z"/>
  <path class="cls-6" d="M169.61,47.26c1.77-.55-.83-2.96-.83-2.96,0,0-.95,3.43.83,2.96Z"/>
  <path class="cls-6" d="M172.33,41.86c-1.79.45-.83-2.96-.83-2.96,0,0,2.6,2.42.83,2.96Z"/>
  <path class="cls-6" d="M161.97,41.76c-1.79.45-.83-2.96-.83-2.96,0,0,2.6,2.42.83,2.96Z"/>
  <path class="cls-6" d="M177.54,47.95c-1.79.45-.83-2.96-.83-2.96,0,0,2.6,2.42.83,2.96Z"/>
  <path class="cls-6" d="M162.91,46.96c-1.23,1.38-2.35-1.98-2.35-1.98,0,0,3.52.55,2.35,1.98Z"/>
  <path class="cls-6" d="M167.95,39.33c1.77-.55-.83-2.96-.83-2.96,0,0-.95,3.43.83,2.96Z"/>
  <path class="cls-6" d="M162.58,23.81c-1.79.45-.83-2.96-.83-2.96,0,0,2.6,2.42.83,2.96Z"/>
  <path class="cls-6" d="M138.09,21.32c-1.79.45-.83-2.96-.83-2.96,0,0,2.6,2.42.83,2.96Z"/>
  <path class="cls-6" d="M156.76,21.19c-1.79.45-.83-2.96-.83-2.96,0,0,2.6,2.42.83,2.96Z"/>
  <path class="cls-6" d="M121.07,40.55c.98-1.57,2.65,1.55,2.65,1.55,0,0-3.56.06-2.65-1.55Z"/>
  <path class="cls-6" d="M108.88,47.08c-.27-1.83,3.02-.54,3.02-.54,0,0-2.67,2.35-3.02.54Z"/>
</svg>